<svg class="main-logo" xmlns="http://www.w3.org/2000/svg" viewBox="0 0 995.4 164.62"><path d="M26.6,99.2c.4,10,9,19.4,23.8,19.4,13.8,0,22.2-7.2,22.8-16.6.6-9.2-5.6-15.2-19-18.8l-17-4.4C7.2,70,2.4,52.6,2.4,40.4,2.4,16.2,23.4,0,48.8,0c26,0,45.8,15.8,45.8,41.6H69c0-10.8-7.8-18-20.6-18C37,23.6,27.8,30,27.8,39.8c0,4.4,1.6,11.8,16.4,15.8l17,5C92,69,100,86.4,98.8,102.6c-1.2,24.8-23.2,39-48.4,39C21,141.6,1,122.8,1,99.2ZM122.4,1.9h85.2V24.7H147.8V60.5h52.4V83.1H147.8v33.8h61.8v22.8H122.4ZM468.2,90.1V.9h25.6V90.1c0,30.8-24.2,50.6-52.2,50.6s-52.4-19.8-52.4-50.6V.9h26V90.1c0,16,12.4,26.4,26.4,26.4S468.2,106.1,468.2,90.1ZM519.8,1.9H605V24.7H545.2V60.5h52.4V83.1H545.2v33.8H607v22.8H519.8ZM737.19,139.7H713.8L660.6,49.1v90.6H635.2V1.9H659l52.6,89.6V1.9h25.59Zm149.4-26.2c-12,17-32.2,28-56,28-39.2,0-69.4-31.8-69.4-70.6,0-39.2,30.2-70.8,69.4-70.8C854,.1,874,10.7,886,27.3L865.6,41.9a44,44,0,0,0-35-17.6c-25,0-43.8,20.8-43.8,46.6,0,25.6,18.8,46.4,43.8,46.4a43.92,43.92,0,0,0,35.8-18.6ZM909.19,1.9h85.2V24.7h-59.8V60.5H987V83.1H934.6v33.8h61.8v22.8H909.2ZM367.6,70.9c0-39.2-30.8-70.8-70-70.8s-69.8,31.6-69.8,70.8a70.8,70.8,0,0,0,25.12,54.4l11.81-23.64A46,46,0,0,1,253.2,70.9c0-25.2,19.4-45.6,44.4-45.6,24.8,0,44.4,20.4,44.4,45.6,0,20.33-12.76,37.39-30.71,43.23L297.61,141.5C336.81,141.49,367.6,109.69,367.6,70.9ZM318.88,83.27H282.52l-40.64,81.35h36.36Z"></path></svg>