<?xml version="1.0" encoding="utf-8"?>
<!-- Generator: Adobe Illustrator 24.3.0, SVG Export Plug-In . SVG Version: 6.00 Build 0)  -->
<svg version="1.1" id="Layer_1" xmlns="http://www.w3.org/2000/svg" xmlns:xlink="http://www.w3.org/1999/xlink" x="0px" y="0px"
	 viewBox="0 0 1920 1080" style="enable-background:new 0 0 1920 1080;" xml:space="preserve">
<style type="text/css">
	.st0{fill:url(#SVGID_1_);stroke:#000000;stroke-width:61;stroke-miterlimit:11;}
	.st1{fill:url(#SVGID_2_);stroke:#000000;stroke-width:61;stroke-miterlimit:11;}
	.st2{fill:#00FF00;stroke:#000000;stroke-width:61;stroke-miterlimit:11;}
	.st3{fill:#2E005A;}
	.st4{fill:none;stroke:url(#SVGID_3_);stroke-width:22.9271;stroke-miterlimit:2;}
	.st5{fill:url(#SVGID_4_);}
	.st6{stroke:#670000;stroke-width:42;stroke-miterlimit:10;}
	.st7{fill:url(#SVGID_5_);}
	.st8{stroke:#AB0000;stroke-width:34.3907;stroke-miterlimit:10;}
	.st9{fill:url(#SVGID_6_);}
	.st10{fill:url(#SVGID_7_);}
	.st11{fill:url(#SVGID_8_);}
	.st12{fill:url(#SVGID_9_);}
	.st13{fill:url(#SVGID_10_);}
	.st14{fill:url(#SVGID_11_);}
	.st15{fill:url(#SVGID_12_);}
	.st16{fill:url(#SVGID_13_);}
	.st17{opacity:0.2;fill:#2E005A;}
	.st18{fill:url(#SVGID_14_);}
	.st19{fill:url(#SVGID_15_);}
	.st20{fill:url(#SVGID_16_);}
	.st21{fill:none;stroke:url(#SVGID_17_);stroke-width:22.9271;stroke-miterlimit:2;}
	.st22{fill:url(#SVGID_18_);}
	.st23{fill:url(#SVGID_19_);stroke:#001702;stroke-width:22.9271;stroke-miterlimit:11;}
	.st24{fill:url(#SVGID_20_);stroke:#001702;stroke-width:22.9271;stroke-miterlimit:11;}
	.st25{fill:#00FF00;stroke:#001702;stroke-width:22.9271;stroke-miterlimit:11;}
	.st26{fill:url(#SVGID_21_);}
	.st27{opacity:0.3;fill:#FFFFFF;}
	.st28{fill:url(#SVGID_22_);}
	.st29{fill:#00FF00;}
	.st30{opacity:0.4;fill:#008300;}
	.st31{fill:none;stroke:url(#SVGID_23_);stroke-width:22.9271;stroke-miterlimit:2;}
	.st32{fill:url(#SVGID_24_);}
	.st33{opacity:0.55;clip-path:url(#SVGID_26_);}
	.st34{fill:#CAB095;}
	.st35{opacity:0.55;clip-path:url(#SVGID_28_);}
	.st36{opacity:0.55;clip-path:url(#SVGID_30_);}
	.st37{fill:url(#SVGID_31_);}
	.st38{fill:#FFFFFF;}
	.st39{fill:url(#SVGID_32_);}
</style>
<g>
	<path d="M1496.33,490.51c-5.56-7.45-10.1-13.54-13.62-18.26c3.41-9.48,4.77-19.65,4.03-30.33c-1.07-15.6-7.54-30.22-18.72-42.31
		c-10.84-11.72-26.25-19.59-45.81-23.41c-9.93-2.02-20.64-2.93-31.85-2.7c-8.97,0.19-20.5,0.76-34.26,1.71
		c-4.9,0.34-10.18,0.75-15.71,1.22c-5,0.43-9.04,0.75-12,0.95l-39.9,2.75l0.4,5.83c-2.51-0.09-5.36-0.19-8.6-0.31
		c-11.93-0.43-21.79-0.8-29.57-1.1c-7.71-0.3-15.5-0.61-23.4-0.94c-8-0.33-13.67-0.56-17.01-0.69l-39.97-1.54l-0.76,19.8
		c-9.89-5.83-21.08-10.17-33.37-12.89c-11.9-2.63-25.18-3.91-40.58-3.91c-5.45,0-12.43,0.04-21.35,0.12
		c-11.11,0.1-13.86,0.12-14.51,0.12h-40v40c0,9.06,0.03,18.06,0.08,26.71c0.05,8.75,0.08,16.24,0.08,22.45
		c0,18.01-0.03,32.44-0.08,41.72c-0.06,9.23-0.08,14.27-0.08,15.12l-0.04,22.51l-0.08-0.55l-39.52-0.52
		c-1.2-0.02-2.27-0.04-3.18-0.08l-0.03,0l-0.03,0c-1.79-0.07-3.82-0.12-6.03-0.15c-1.51-0.02-3-0.03-4.48-0.03
		c-21.56,0-41.25,2.15-58.51,6.39c-19.33,4.75-36.37,11.86-50.67,21.11l-0.38-30.43l-28.97,0.36c5.81-5.33,10.86-11.61,15.1-18.8
		c6.82-11.57,10.57-25.18,11.15-40.46c0.12-3.18,0.25-7.05,0.4-11.65c0.14-4.41,0.32-9.58,0.55-15.5c0.17-4.42,0.36-8.8,0.57-13.03
		c0.23-4.64,0.53-11.87,0.9-21.48l1.5-39.47l-192.06-7.3l-0.14,3.58h-84.01l-0.88-13.16l-39.41,2.64
		c-4.16,0.28-12.3,0.84-24.43,1.68c-12.04,0.84-22.27,1.54-30.71,2.1c-10.51,0.7-21.81,1.45-33.92,2.23
		c-12.18,0.79-19.51,1.27-21.98,1.43l-39.41,2.64l7.82,116.65l32.61-2.18c0.46,7.05,0.83,12.95,1.1,17.6
		c0.36,6.24,0.73,12.2,1.1,17.72l2.64,39.41l84.41-5.66v1.89h121.24L657,787.94l32.64-0.57c3.35-0.04,11.44-0.16,22.79-0.34
		c11.98-0.18,23.62-0.35,34.58-0.48c9.3-0.12,21.8-0.25,37.15-0.41c14.67-0.15,25.35-0.26,30.89-0.33l46-0.57l-0.25-20.05
		c15.14,9.09,30.72,15.66,46.42,19.55c16.08,3.98,33.64,6.13,52.18,6.37c0.94,0.01,1.94,0.02,3.01,0.02c5.06,0,11.24-0.14,18.9-0.44
		c14.22-0.55,19.36-1.09,24.96-2.66l33.17-9.26l0.13-9.58c10.02,6.64,20.38,12.05,30.96,16.16c15.44,6,32.58,10.36,50.94,12.96
		c5.47,0.78,12.6,1.55,21.78,2.37c10.58,0.95,14.57,1.08,17.3,1.08c2.77,0,5.33-0.17,7.8-0.53l34.08-4.96l4.84-34.1
		c1.66-11.71,2.79-19.82,3.36-24.1c0.51-3.87,1.19-8.77,2.07-14.99c0.76-5.39,1.61-11.23,2.51-17.35
		c0.99-6.73,1.87-12.78,2.68-18.51l6.46-45.54l-12.01-1.7l-0.32-31.05l-0.41-39.52l-2.88-0.41c2.83,0.1,6.55,0.23,11.17,0.4
		c8.77,0.31,17.22,0.62,25.36,0.94c6.94,0.27,16.02,0.63,27.23,1.09c11.31,0.46,18.87,0.77,22.68,0.91l6.58,0.25l0.16,2.27
		l21.1-1.45l12.13,0.47l0.05-1.31l61.88-4.26l6.22,8.54l126.18-41.91L1496.33,490.51z M783.69,740.15
		c-15.35,0.15-27.77,0.29-37.26,0.41c-11.14,0.14-22.72,0.3-34.72,0.49c-12.01,0.19-19.56,0.3-22.64,0.33
		c-0.04-3.31-0.1-10.6-0.16-21.89c-0.07-11.29-0.26-29.8-0.58-55.54c-0.11-8.55-0.27-18.85-0.49-30.89
		c-0.22-12.04-0.41-24.06-0.56-36.07c4.53-0.06,12.2-0.13,23.02-0.23c10.82-0.1,21.51-0.21,32.08-0.34
		c10.64-0.13,24.12-0.32,40.44-0.56c16.32-0.24,25.84-0.38,28.58-0.41l0.47,37.86c-0.52,1.39-1.01,2.8-1.47,4.21
		c-2.49,0.03-6.94,0.06-13.36,0.11c-8.05,0.06-13.52,0.11-16.39,0.15c-4.1,0.05-10.17,0.14-18.22,0.28
		c-8.05,0.14-14.27,0.23-18.65,0.29c0.02,1.8,0.05,4.3,0.09,7.49c0.04,3.2,0.07,5.63,0.09,7.28c4.46-0.06,10.48-0.11,18.06-0.17
		c7.58-0.06,13.39-0.11,17.42-0.16c4.89-0.06,10.14-0.14,15.74-0.25c4.22-0.08,8.08-0.14,11.57-0.19
		c-0.94,5.58-1.46,11.31-1.53,17.18c-0.06,4.38,0.14,8.68,0.56,12.91c-2.72,0.03-6.27,0.05-10.66,0.09
		c-7.62,0.06-12.83,0.11-15.64,0.14c-4.03,0.05-9.76,0.14-17.2,0.27c-7.44,0.13-13.43,0.22-17.95,0.28c0.02,1.65,0.05,4.19,0.09,7.6
		c0.04,3.42,0.07,6.02,0.1,7.82c4.46-0.06,11.05-0.12,19.79-0.19c8.74-0.07,15.19-0.13,19.36-0.19c4.89-0.06,10.3-0.14,16.23-0.26
		c3.23-0.06,6.08-0.11,8.57-0.15c1.43,5.64,3.34,11.11,5.7,16.39l0.32,25.58C809.3,739.88,799.04,739.99,783.69,740.15z
		 M993.89,743.73c-1.23,0.34-6.01,0.68-14.36,1c-7,0.27-12.71,0.4-17.13,0.4c-0.85,0-1.65-0.01-2.4-0.01
		c-15.1-0.2-29.01-1.87-41.73-5.03c-12.72-3.15-25.39-8.8-38.01-16.95c-8.36-5.53-15.1-12.41-20.25-20.58l-0.07-5.38l-0.57-46
		l-1.29,0.02l-0.1-8.45c0.32-0.59,0.65-1.18,0.99-1.76c5.04-8.56,12.56-16.12,22.57-22.68c10.15-6.7,22.59-11.85,37.3-15.47
		c13.74-3.38,29.58-5.06,47.54-5.06c1.28,0,2.57,0.01,3.87,0.03c1.87,0.02,3.49,0.07,4.85,0.12c1.36,0.05,2.84,0.09,4.42,0.11
		l6.73,48.49c-0.04,0.15-0.08,0.3-0.12,0.46c-1.25-0.02-2.68-0.04-4.3-0.06c-1.69-0.02-3.65-0.05-5.88-0.08
		c-0.33,0-0.68-0.01-1.07-0.01c-2.87,0-7.46,0.12-13.77,0.35c-7.16,0.27-13.95,1.15-20.37,2.64c-8.87,1.97-15.89,5.24-21.05,9.81
		c-5.17,4.57-7.79,9.95-7.87,16.13c-0.07,5.1,1.06,9.56,3.38,13.36c2.32,3.81,5.16,6.81,8.51,9.01c1.35,0.95,3.37,2.02,6.05,3.21
		c2.68,1.19,5.45,2.09,8.32,2.7c0.02-1.58,0.07-5.43,0.15-11.54c0.08-6.11,0.12-14.52,0.12-25.24l44.66,0.59
		c-0.9,16.14,1.74,31.59,7.91,46.06c0.99,2.32,2.06,4.59,3.19,6.82C994.12,725.08,994.03,732.73,993.89,743.73z M1022.15,570.61
		h10.6l-9.31,9.31L1022.15,570.61z M1169.69,699.01c-0.94,6.4-1.79,12.27-2.55,17.61c-0.88,6.19-1.59,11.32-2.13,15.38
		c-0.54,4.06-1.64,11.97-3.31,23.71c-0.25,0.04-0.64,0.05-1.17,0.05c-2.13,0-6.53-0.3-13.2-0.89c-8.32-0.74-14.79-1.44-19.42-2.1
		c-14.95-2.12-28.53-5.55-40.75-10.3c-12.22-4.75-24.06-11.96-35.54-21.65c-4.39-3.79-8.16-7.95-11.37-12.48
		c0.01-1.11,0.03-2.26,0.04-3.47c0.07-5.44,0.17-11.34,0.28-17.53c0.13-6.81,0.23-12.92,0.3-18.7l0.43-32.42
		c6.06-7.66,14.36-14.07,24.93-19.2c10.92-5.35,23.92-8.88,38.97-10.59c5.78-0.66,11.89-0.99,18.31-0.99
		c10.29,0,21.39,0.85,33.32,2.54c1.85,0.26,3.45,0.51,4.8,0.74c1.35,0.23,2.8,0.45,4.37,0.67l0.51,49.41
		c-1.28-0.18-2.76-0.39-4.43-0.63c-1.67-0.24-3.61-0.51-5.82-0.83c-2.71-0.38-7.63-0.9-14.76-1.55c-3.51-0.32-6.96-0.48-10.33-0.48
		c-3.48,0-6.88,0.17-10.2,0.51c-9.05,0.82-16.43,3.17-22.13,7.05c-5.71,3.87-8.99,8.87-9.86,15c-0.72,5.05-0.17,9.62,1.65,13.69
		c1.82,4.07,4.25,7.41,7.29,10.02c1.22,1.12,3.09,2.44,5.59,3.95c2.51,1.52,5.14,2.76,7.91,3.74c0.22-1.56,0.76-5.37,1.62-11.42
		c0.86-6.05,1.97-14.39,3.33-25.02l55.95,7.93C1171.51,686.52,1170.63,692.6,1169.69,699.01z"/>
	<polygon points="893.57,533.89 913.22,489.67 924.69,483.12 947.61,533.89 952.53,540.44 983.64,530.61 1018.31,441.94 
		1004.93,417.62 1000.02,414.34 970.54,479.85 962.35,489.67 954.16,473.3 932.87,433.99 901.76,443.82 865.73,542.08 
		880.47,555.18 	"/>
</g>
<g>
	<linearGradient id="SVGID_1_" gradientUnits="userSpaceOnUse" x1="888.5394" y1="491.3229" x2="964.3402" y2="353.0102">
		<stop  offset="0" style="stop-color:#00FF00"/>
		<stop  offset="0.0528" style="stop-color:#0DFF00"/>
		<stop  offset="0.1506" style="stop-color:#30FF00"/>
		<stop  offset="0.2829" style="stop-color:#68FF00"/>
		<stop  offset="0.4427" style="stop-color:#B4FF00"/>
		<stop  offset="0.5191" style="stop-color:#DBFF00"/>
		<stop  offset="0.568" style="stop-color:#CEF900"/>
		<stop  offset="0.6586" style="stop-color:#ABE900"/>
		<stop  offset="0.7811" style="stop-color:#73CF00"/>
		<stop  offset="0.9292" style="stop-color:#27AB00"/>
		<stop  offset="1" style="stop-color:#009900"/>
	</linearGradient>
	<path class="st0" d="M878.76,484.73c2.29-5.61,5.06-12.45,8.29-20.51c3.23-8.06,6.79-16.91,10.66-26.54l40.76-13.03
		c2.46,5.55,5.63,12.42,9.52,20.6c3.89,8.18,9.24,18.97,16.05,32.38l0.64-0.26c2.85-6.97,6.03-14.83,9.54-23.57
		c2.28-5.68,13.1-32.87,21.37-53.61c-16.09-10.71-35.41-16.97-56.19-16.97c-56.08,0-101.53,45.46-101.53,101.53
		c0,22.07,7.07,42.49,19.03,59.14c3.08-11.16,5.49-19.41,6.58-22.05C868.22,510.45,873.31,498.08,878.76,484.73z"/>
	<linearGradient id="SVGID_2_" gradientUnits="userSpaceOnUse" x1="885.6757" y1="489.7126" x2="1041.6898" y2="524.1479">
		<stop  offset="0" style="stop-color:#00FF00"/>
		<stop  offset="0.0528" style="stop-color:#0DFF00"/>
		<stop  offset="0.1506" style="stop-color:#30FF00"/>
		<stop  offset="0.2829" style="stop-color:#68FF00"/>
		<stop  offset="0.4427" style="stop-color:#B4FF00"/>
		<stop  offset="0.5191" style="stop-color:#DBFF00"/>
		<stop  offset="0.568" style="stop-color:#CEF900"/>
		<stop  offset="0.6586" style="stop-color:#ABE900"/>
		<stop  offset="0.7811" style="stop-color:#73CF00"/>
		<stop  offset="0.9292" style="stop-color:#27AB00"/>
		<stop  offset="1" style="stop-color:#009900"/>
	</linearGradient>
	<path class="st1" d="M1017.7,457.39c-3.45,8.3-6.58,15.87-9.38,22.73c-3.62,8.86-7.77,19.09-12.46,30.7
		c-4.69,11.61-8.21,20.3-10.57,26.09l-38.61,12.31c-5.35-14.23-10.42-26.54-15.22-36.9c-4.8-10.37-8.12-17.35-9.96-20.95l-0.85,0.35
		c-3.5,8.56-7.55,18.55-12.15,29.95c-1.71,4.25-13.36,23.61-27.31,46.24c16.49,11.57,36.56,18.38,58.23,18.38
		c56.08,0,101.53-45.46,101.53-101.53c0-18.59-5.02-36-13.74-50.98C1022.65,445.17,1018.9,454.49,1017.7,457.39z"/>
	<path class="st2" d="M1027.22,433.78c8.5-21.2,19.84-49.57,22.91-57.1h-45.1c-1.25,3.06-4.97,12.36-9.42,23.52
		C1008.55,408.81,1019.38,420.31,1027.22,433.78z"/>
	<path class="st2" d="M856.92,543.9c-10.19,36.93-27.72,105.82-29.24,109.53c0,0,30.01-47.4,53.51-85.53
		C871.81,561.33,863.6,553.21,856.92,543.9z"/>
</g>
<g>
	<path class="st3" d="M966.38,597.8c1.28,0,2.57,0.01,3.87,0.03c1.87,0.02,3.49,0.07,4.85,0.12c1.36,0.05,2.84,0.09,4.42,0.11
		l6.8,48.95c-1.29-0.02-2.79-0.04-4.48-0.06c-1.69-0.02-3.65-0.05-5.88-0.08c-0.33,0-0.68-0.01-1.07-0.01
		c-2.87,0-7.46,0.12-13.76,0.35c-7.16,0.27-13.95,1.15-20.37,2.64c-8.87,1.97-15.89,5.24-21.05,9.81
		c-5.17,4.57-7.79,9.95-7.87,16.13c-0.07,5.1,1.06,9.56,3.38,13.36c2.32,3.81,5.16,6.81,8.51,9.01c1.35,0.95,3.37,2.02,6.05,3.21
		c2.68,1.19,5.45,2.09,8.32,2.7c0.02-1.58,0.07-5.43,0.15-11.54c0.08-6.11,0.12-14.52,0.12-25.24l56.5,0.74
		c-0.08,5.82-0.18,11.97-0.3,18.44c-0.12,6.47-0.22,12.4-0.29,17.79c-0.08,6.25-0.13,11.43-0.15,15.53
		c-0.02,4.1-0.1,12.08-0.26,23.94c-1.23,0.34-6.01,0.68-14.36,1c-7,0.27-12.71,0.4-17.13,0.4c-0.85,0-1.65,0-2.4-0.01
		c-15.1-0.2-29.01-1.87-41.73-5.03c-12.72-3.15-25.39-8.8-38.01-16.95c-8.98-5.94-16.11-13.41-21.38-22.39
		c-5.27-8.98-7.84-19.19-7.69-30.62c0.14-10.85,2.73-20.56,7.77-29.13c5.04-8.56,12.56-16.12,22.57-22.68
		c10.15-6.7,22.59-11.85,37.3-15.47C932.58,599.48,948.43,597.8,966.38,597.8 M966.38,576.51c-19.58,0-37.28,1.91-52.62,5.68
		c-17.01,4.18-31.78,10.36-43.91,18.35c-12.71,8.33-22.55,18.31-29.23,29.67c-6.91,11.75-10.52,25.09-10.71,39.64
		c-0.2,15.32,3.37,29.34,10.61,41.68c6.91,11.77,16.33,21.65,28,29.37l0.1,0.07l0.1,0.06c14.54,9.39,29.49,16.03,44.44,19.73
		c14.25,3.53,29.91,5.43,46.56,5.65c0.84,0.01,1.73,0.02,2.68,0.02c4.68,0,10.71-0.14,17.95-0.42c12.92-0.5,16.26-0.93,19.26-1.77
		l15.35-4.29l0.21-15.94c0.15-11.76,0.24-19.87,0.26-24.12c0.02-3.97,0.07-8.99,0.15-15.35c0.07-5.49,0.17-11.43,0.29-17.67
		c0.13-6.76,0.22-12.83,0.3-18.56l0.28-21.29l-8.65-0.11l-0.39-2.84l-6.8-48.95l-2.52-18.12l-18.29-0.24
		c-1.42-0.02-2.72-0.05-3.85-0.1c-1.6-0.06-3.42-0.11-5.42-0.13C969.14,576.52,967.76,576.51,966.38,576.51L966.38,576.51z"/>
</g>
<g>
	<path class="st3" d="M1123.52,605.44c10.29,0,21.39,0.85,33.32,2.54c1.85,0.26,3.45,0.51,4.8,0.74c1.35,0.23,2.8,0.45,4.37,0.67
		l0.51,49.41c-1.28-0.18-2.76-0.39-4.43-0.63c-1.67-0.24-3.61-0.51-5.82-0.83c-2.71-0.38-7.63-0.9-14.76-1.55
		c-3.51-0.32-6.96-0.48-10.33-0.48c-3.48,0-6.88,0.17-10.2,0.51c-9.05,0.82-16.43,3.17-22.13,7.05c-5.71,3.87-8.99,8.87-9.86,15
		c-0.72,5.05-0.17,9.62,1.65,13.69c1.82,4.07,4.25,7.41,7.29,10.02c1.22,1.12,3.09,2.44,5.59,3.95c2.51,1.52,5.14,2.76,7.91,3.74
		c0.22-1.56,0.76-5.37,1.62-11.42c0.86-6.05,1.97-14.39,3.33-25.02l55.95,7.93c-0.82,5.77-1.7,11.85-2.64,18.25
		c-0.94,6.4-1.79,12.27-2.55,17.61c-0.88,6.19-1.59,11.32-2.13,15.38c-0.54,4.06-1.64,11.97-3.31,23.71
		c-0.25,0.04-0.64,0.05-1.17,0.05c-2.13,0-6.53-0.3-13.2-0.89c-8.32-0.74-14.79-1.44-19.42-2.1c-14.95-2.12-28.53-5.55-40.75-10.3
		c-12.22-4.75-24.06-11.96-35.54-21.65c-8.15-7.04-14.27-15.35-18.36-24.93c-4.09-9.58-5.33-20.04-3.72-31.35
		c1.52-10.75,5.33-20.05,11.42-27.9c6.09-7.85,14.51-14.39,25.27-19.62c10.92-5.35,23.92-8.88,38.97-10.59
		C1111,605.77,1117.1,605.44,1123.52,605.44 M1123.52,584.15c-7.19,0-14.16,0.38-20.72,1.12c-17.4,1.98-32.84,6.23-45.9,12.61
		c-13.67,6.64-24.69,15.29-32.77,25.71c-8.35,10.77-13.63,23.54-15.67,37.95c-2.15,15.17-0.4,29.53,5.22,42.69
		c5.35,12.55,13.44,23.55,24.03,32.7l0.09,0.08l0.09,0.08c13.23,11.16,27.21,19.65,41.57,25.23c13.68,5.31,28.98,9.19,45.47,11.53
		c5.04,0.72,11.75,1.44,20.51,2.23c9.7,0.87,13.16,0.98,15.1,0.98c1.59,0,2.94-0.09,4.24-0.28l15.77-2.3l2.24-15.78
		c1.65-11.64,2.77-19.68,3.33-23.89c0.52-3.94,1.21-8.91,2.1-15.2c0.77-5.44,1.62-11.33,2.53-17.49c0.98-6.67,1.85-12.68,2.66-18.37
		l2.99-21.08l-8.57-1.22l-0.03-2.87l-0.51-49.41l-0.19-18.29l-18.11-2.57c-1.41-0.2-2.69-0.4-3.8-0.59
		c-1.58-0.27-3.38-0.54-5.36-0.82C1146.97,585.08,1134.76,584.15,1123.52,584.15L1123.52,584.15z"/>
</g>
<g>
	<path class="st3" d="M811.39,595.44l0.52,42.06c-1.87,0.02-6.83,0.07-14.88,0.13c-8.05,0.06-13.52,0.11-16.39,0.15
		c-4.1,0.05-10.17,0.14-18.22,0.28c-8.05,0.14-14.27,0.23-18.65,0.29c0.02,1.8,0.05,4.3,0.09,7.49c0.04,3.2,0.07,5.63,0.09,7.28
		c4.46-0.06,10.48-0.11,18.06-0.17c7.58-0.06,13.39-0.11,17.42-0.16c4.89-0.06,10.14-0.14,15.74-0.25
		c5.61-0.1,10.57-0.18,14.88-0.24l0.37,30.09c-2.59,0.03-7.69,0.08-15.31,0.14c-7.62,0.06-12.83,0.11-15.64,0.14
		c-4.03,0.05-9.76,0.14-17.2,0.27c-7.44,0.13-13.43,0.22-17.95,0.28c0.02,1.65,0.05,4.19,0.09,7.6c0.04,3.42,0.07,6.02,0.1,7.82
		c4.46-0.06,11.05-0.12,19.79-0.19c8.74-0.07,15.19-0.13,19.36-0.19c4.89-0.06,10.3-0.14,16.23-0.26
		c5.93-0.11,10.62-0.19,14.07-0.23l0.52,42.06c-5.18,0.06-15.44,0.17-30.79,0.33c-15.35,0.15-27.77,0.29-37.26,0.41
		c-11.14,0.14-22.72,0.3-34.72,0.49c-12.01,0.19-19.56,0.3-22.64,0.33c-0.04-3.31-0.1-10.6-0.16-21.89
		c-0.07-11.29-0.26-29.8-0.58-55.54c-0.11-8.55-0.27-18.85-0.49-30.89c-0.22-12.04-0.41-24.06-0.56-36.07
		c4.53-0.06,12.2-0.13,23.02-0.23c10.82-0.1,21.51-0.21,32.08-0.34c10.64-0.13,24.12-0.32,40.44-0.56
		C799.14,595.61,808.66,595.48,811.39,595.44 M832.42,573.89l-21.29,0.26c-2.74,0.03-12.28,0.17-28.62,0.41
		c-15.77,0.23-29.36,0.42-40.39,0.55c-10.79,0.13-21.56,0.25-32.01,0.34c-11.03,0.1-18.58,0.18-23.1,0.23l-21.29,0.26l0.26,21.29
		c0.15,12.12,0.34,24.3,0.56,36.2c0.22,12.28,0.38,22.34,0.49,30.77c0.32,25.42,0.51,44.06,0.58,55.4
		c0.07,11.16,0.12,18.58,0.16,22.02l0.26,21.29l21.29-0.26c3.33-0.04,11.39-0.16,22.71-0.34c12-0.18,23.66-0.35,34.66-0.48
		c9.45-0.12,21.62-0.25,37.21-0.41c14.68-0.15,25.34-0.26,30.84-0.33l21.29-0.26l-0.26-21.29l-0.52-42.06l-0.26-21.29l-3.34,0.04
		l-0.22-17.7l2.05-0.03l-0.26-21.29l-0.52-42.06L832.42,573.89L832.42,573.89z"/>
</g>
<linearGradient id="SVGID_3_" gradientUnits="userSpaceOnUse" x1="858.0577" y1="697.6705" x2="1024.6318" y2="697.6705" gradientTransform="matrix(0.9999 0.0132 -0.0132 0.9999 -9.0712 -37.5929)">
	<stop  offset="0" style="stop-color:#5400C0"/>
	<stop  offset="0.1664" style="stop-color:#5F0DBE"/>
	<stop  offset="0.4748" style="stop-color:#7C2FB9"/>
	<stop  offset="0.8884" style="stop-color:#AA67B0"/>
	<stop  offset="1" style="stop-color:#B777AE"/>
</linearGradient>
<path class="st4" d="M994.87,669.54c-0.08,5.82-0.18,11.97-0.3,18.44c-0.12,6.47-0.22,12.4-0.29,17.79
	c-0.08,6.25-0.13,11.43-0.15,15.53c-0.02,4.1-0.1,12.08-0.26,23.94c-1.23,0.34-6.01,0.68-14.36,1c-8.35,0.32-14.85,0.45-19.53,0.39
	c-15.1-0.2-29.01-1.87-41.73-5.03c-12.72-3.15-25.39-8.8-38.01-16.95c-8.98-5.94-16.11-13.41-21.38-22.39
	c-5.27-8.98-7.84-19.19-7.69-30.62c0.14-10.85,2.73-20.56,7.77-29.13c5.04-8.56,12.56-16.12,22.57-22.68
	c10.15-6.7,22.59-11.85,37.3-15.47c14.72-3.62,31.85-5.3,51.4-5.04c1.87,0.02,3.49,0.07,4.85,0.12c1.36,0.05,2.84,0.09,4.42,0.11
	l6.8,48.95c-1.29-0.02-2.79-0.04-4.48-0.06c-1.69-0.02-3.65-0.05-5.88-0.08c-2.73-0.04-7.68,0.08-14.83,0.34
	c-7.16,0.27-13.95,1.15-20.37,2.64c-8.87,1.97-15.89,5.24-21.05,9.81c-5.17,4.57-7.79,9.95-7.87,16.13
	c-0.07,5.1,1.06,9.56,3.38,13.36c2.32,3.81,5.16,6.81,8.51,9.01c1.35,0.95,3.37,2.02,6.05,3.21c2.68,1.19,5.45,2.09,8.32,2.7
	c0.02-1.58,0.07-5.43,0.15-11.54c0.08-6.11,0.12-14.52,0.12-25.24L994.87,669.54z"/>
<g>
	
		<linearGradient id="SVGID_4_" gradientUnits="userSpaceOnUse" x1="871.0255" y1="697.6705" x2="1014.6725" y2="697.6705" gradientTransform="matrix(0.9999 0.0132 -0.0132 0.9999 -9.0712 -37.5929)">
		<stop  offset="0" style="stop-color:#D7C4B0"/>
		<stop  offset="0.3552" style="stop-color:#D2B7B8"/>
		<stop  offset="0.5447" style="stop-color:#CFAEBE"/>
		<stop  offset="1" style="stop-color:#C595CC"/>
	</linearGradient>
	<path class="st5" d="M996.37,669.56c-0.08,5.82-0.18,11.97-0.3,18.44c-0.12,6.47-0.22,12.4-0.29,17.79
		c-0.08,6.25-0.13,11.43-0.15,15.53c-0.02,4.1-0.1,12.08-0.26,23.94c-1.23,0.34-6.01,0.68-14.36,1c-8.35,0.32-14.85,0.45-19.53,0.39
		c-15.1-0.2-29.01-1.87-41.73-5.03c-12.72-3.15-25.39-8.8-38.01-16.95c-8.98-5.94-16.11-13.41-21.38-22.39
		c-5.27-8.98-7.84-19.19-7.69-30.62c0.14-10.85,2.73-20.56,7.77-29.13c5.04-8.56,12.56-16.12,22.57-22.68
		c10.15-6.7,22.59-11.85,37.3-15.47c14.72-3.62,31.85-5.3,51.4-5.04c1.87,0.02,3.49,0.07,4.85,0.12c1.36,0.05,2.84,0.09,4.42,0.11
		l6.8,48.95c-1.29-0.02-2.79-0.04-4.48-0.06c-1.69-0.02-3.65-0.05-5.88-0.08c-2.73-0.04-7.68,0.08-14.83,0.34
		c-7.16,0.27-13.95,1.15-20.37,2.64c-8.87,1.97-15.89,5.24-21.05,9.81c-5.17,4.57-7.79,9.95-7.87,16.13
		c-0.07,5.1,1.06,9.56,3.38,13.36c2.32,3.81,5.16,6.81,8.51,9.01c1.35,0.95,3.37,2.02,6.05,3.21c2.68,1.19,5.45,2.09,8.32,2.7
		c0.02-1.58,0.07-5.43,0.15-11.54c0.08-6.11,0.12-14.52,0.12-25.24L996.37,669.56z"/>
</g>
<g>
	<path class="st6" d="M1173.76,478.29c0,9.29-2.28,17.43-6.85,24.42c-4.56,6.99-10.49,12.63-17.77,16.9
		c-6.33,3.75-13.54,6.61-21.61,8.59c-8.07,1.98-17.86,2.97-29.37,2.97c-6.54,0-14.32-0.09-23.31-0.28c-9-0.19-14.03-0.28-15.08-0.28
		c0-0.84,0.03-5.8,0.08-14.88c0.05-9.08,0.08-23.06,0.08-41.96c0-6.28-0.03-13.84-0.08-22.68c-0.05-8.84-0.08-17.67-0.08-26.48
		c1.27,0,6.23-0.04,14.88-0.12c8.66-0.08,15.65-0.12,20.98-0.12c12.35,0,23,0.99,31.94,2.97c8.94,1.98,16.74,5.08,23.39,9.3
		c7.71,4.91,13.43,10.83,17.18,17.77C1171.89,461.36,1173.76,469.32,1173.76,478.29z M1129.19,476.23c0-3.17-0.77-6.15-2.3-8.95
		c-1.53-2.8-3.83-5.01-6.89-6.65c-2.38-1.27-4.88-2.12-7.52-2.57c-2.64-0.45-5.52-0.67-8.63-0.67c-0.27,0-0.63,0-1.11,0
		c0,1.48,0,4.24,0,8.27c0,4.04,0,7.51,0,10.41c0,3.32,0,6.49,0,9.5c0,3.01,0,6.91,0,11.72c0.16,0,0.28,0,0.36,0s0.2,0,0.36,0
		c2.06,0,4.68-0.33,7.88-0.99c3.19-0.66,5.63-1.44,7.32-2.34c4.38-2.37,7.23-5.04,8.55-8
		C1128.53,483.01,1129.19,479.77,1129.19,476.23z"/>
	<linearGradient id="SVGID_5_" gradientUnits="userSpaceOnUse" x1="1049.9375" y1="477.7726" x2="1183.5852" y2="477.7726">
		<stop  offset="0" style="stop-color:#FF0000"/>
		<stop  offset="0.1037" style="stop-color:#FD0D00"/>
		<stop  offset="0.2957" style="stop-color:#F92F00"/>
		<stop  offset="0.5191" style="stop-color:#F25F00"/>
		<stop  offset="0.793" style="stop-color:#EE6C00"/>
		<stop  offset="1" style="stop-color:#EA7900"/>
	</linearGradient>
	<path class="st7" d="M1176.78,449.75c-4.54-8.4-11.45-15.6-20.56-21.4c-7.59-4.82-16.51-8.38-26.54-10.6
		c-9.6-2.12-21.06-3.2-34.07-3.2c-5.35,0-12.38,0.04-21.07,0.12c-8.6,0.08-13.53,0.12-14.79,0.12h-9.83v9.83
		c0,8.83,0.03,17.68,0.08,26.54c0.05,8.82,0.08,16.36,0.08,22.62c0,18.41-0.03,32.51-0.08,41.9c-0.05,9.11-0.08,14.1-0.08,14.94
		v9.83h9.83c0.47,0,2.86,0.03,14.88,0.27c9.04,0.19,16.95,0.28,23.52,0.28c12.24,0,22.91-1.09,31.71-3.25
		c8.98-2.2,17.14-5.45,24.25-9.66c8.57-5.03,15.65-11.76,21.03-20c5.6-8.58,8.45-18.61,8.45-29.79
		C1183.59,467.71,1181.3,458.11,1176.78,449.75z M1114.05,485.29c-0.16,0.09-0.6,0.3-1.47,0.57v-17.71c0.96,0.28,1.89,0.67,2.8,1.15
		c1.8,0.96,2.52,2,2.9,2.7c0.74,1.36,1.09,2.71,1.09,4.23c0,2.16-0.37,4.03-1.13,5.73C1118.21,482.02,1117.58,483.37,1114.05,485.29
		z"/>
	<path class="st6" d="M1296.7,532.34c-3.8-0.15-11.33-0.45-22.58-0.91c-11.26-0.46-20.37-0.82-27.33-1.09
		c-8.18-0.31-16.67-0.63-25.47-0.94c-8.81-0.31-14.35-0.51-16.61-0.6c0.09-2.43,0.32-7.78,0.7-16.06
		c0.37-8.28,0.92-21.86,1.64-40.74c0.24-6.27,0.51-13.83,0.79-22.67c0.29-8.83,0.6-17.66,0.94-26.46c3.32,0.13,8.95,0.36,16.89,0.69
		c7.94,0.33,15.78,0.65,23.53,0.94c7.81,0.3,17.69,0.67,29.67,1.1c11.97,0.43,18.96,0.69,20.97,0.77l-1.19,30.85
		c-1.37-0.05-5.01-0.2-10.92-0.46c-5.91-0.25-9.91-0.42-12.02-0.5c-3.01-0.12-7.46-0.27-13.37-0.47c-5.91-0.2-10.47-0.36-13.69-0.49
		c-0.05,1.32-0.12,3.15-0.21,5.5c-0.09,2.35-0.16,4.13-0.21,5.34c3.27,0.13,7.68,0.31,13.25,0.55c5.56,0.24,9.82,0.42,12.77,0.53
		c3.58,0.14,7.43,0.27,11.55,0.4c4.11,0.13,7.76,0.26,10.92,0.38l-0.85,22.07c-1.9-0.07-5.64-0.23-11.23-0.47
		c-5.59-0.24-9.41-0.4-11.47-0.48c-2.95-0.11-7.16-0.26-12.62-0.44c-5.46-0.18-9.85-0.34-13.17-0.47c-0.05,1.21-0.12,3.07-0.21,5.58
		c-0.1,2.51-0.17,4.42-0.22,5.74c3.27,0.13,8.11,0.33,14.52,0.6c6.4,0.27,11.14,0.47,14.2,0.58c3.59,0.14,7.56,0.28,11.91,0.42
		c4.35,0.14,7.79,0.26,10.33,0.36L1296.7,532.34z"/>
	<path class="st6" d="M1464.27,514.42l-45.85,15.23c-3.74-5.14-8.01-11.13-12.82-17.96c-4.8-6.82-11.91-17.27-21.32-31.34l0.58-2.88
		c1.53-0.39,3.47-1.19,5.83-2.38c2.36-1.2,4.23-2.68,5.6-4.44c1.96-2.49,3.12-4.58,3.49-6.28c0.37-1.69,0.48-3.62,0.33-5.8
		c-0.16-2.34-0.88-4.57-2.14-6.66c-1.26-2.1-2.91-3.59-4.92-4.49c-1.78-0.74-3.43-1.21-4.97-1.43c-1.54-0.21-3.28-0.25-5.22-0.11
		c-0.74,0.05-1.54,0.11-2.4,0.17c0.1,1.43,0.31,4.94,0.64,10.52c0.33,5.58,0.79,12.66,1.38,21.24c0.78,11.33,1.47,20.97,2.08,28.91
		c0.6,7.95,1.14,15.35,1.62,22.22l-47.11,3.24c-0.41-6.01-0.84-12.66-1.29-19.96c-0.45-7.3-1.37-21.19-2.78-41.67
		c-0.47-6.81-1.06-15-1.78-24.58c-0.72-9.58-1.4-19.14-2.06-28.7c3.15-0.22,7.36-0.55,12.65-1c5.29-0.45,10.3-0.84,15.05-1.17
		c13.21-0.91,24-1.45,32.35-1.62c8.35-0.17,16.08,0.47,23.2,1.94c11.19,2.16,19.28,5.94,24.28,11.35c5,5.4,7.72,11.37,8.17,17.89
		c0.44,6.35-0.59,12.07-3.09,17.15c-2.5,5.09-5.63,9.08-9.39,11.99l0.04,0.6c3.79,5.08,7.54,10.1,11.23,15.05
		C1449.34,494.4,1455.55,502.72,1464.27,514.42z"/>
</g>
<path class="st8" d="M546.7,451.83c-4.26,0.29-9.7,0.64-16.31,1.05c-6.61,0.42-11.99,0.76-16.14,1.04
	c0.35,5.21,0.65,10.08,0.89,14.59c0.25,4.52,0.57,9.8,0.98,15.85c0.62,9.3,1.21,17.59,1.75,24.87c0.54,7.28,1.01,13.78,1.39,19.5
	l-46.15,3.09c-0.35-5.27-0.71-11.05-1.08-17.36c-0.37-6.31-0.93-15.09-1.68-26.36c-0.34-5.04-0.69-10.09-1.06-15.13
	c-0.37-5.04-0.76-10.36-1.2-15.96c-5.6,0.38-11.88,0.81-18.83,1.3c-6.95,0.49-11.48,0.81-13.61,0.95l-2.53-37.82
	c2.47-0.17,9.76-0.64,21.9-1.43c12.13-0.78,23.47-1.53,34-2.24c8.46-0.57,18.73-1.27,30.8-2.11c12.07-0.84,20.18-1.39,24.33-1.67
	L546.7,451.83z"/>
<path class="st8" d="M676.07,530.61h-43.46c0-2.85,0.03-6.93,0.08-12.23c0.05-5.3,0.08-13.44,0.08-24.42c-3.06,0-5.66-0.01-7.8-0.04
	c-2.14-0.03-4.6-0.04-7.4-0.04c-2.37,0-4.64,0.01-6.81,0.04c-2.17,0.03-4.57,0.04-7.2,0.04c0,6.44,0.03,13.05,0.08,19.83
	c0.05,6.78,0.08,12.39,0.08,16.82h-43.46c0-4.64,0.03-10.55,0.08-17.73c0.05-7.18,0.08-20.21,0.08-39.11
	c0-6.28-0.03-13.84-0.08-22.68c-0.05-8.84-0.08-17.67-0.08-26.48h43.46c0,7.07-0.03,13.1-0.08,18.09
	c-0.05,4.99-0.08,10.2-0.08,15.64c2.64,0,5.04,0.01,7.2,0.04c2.16,0.03,4.46,0.04,6.89,0.04c2.85,0,5.32-0.01,7.4-0.04
	c2.09-0.03,4.66-0.04,7.72-0.04c0-4.8-0.03-10.04-0.08-15.71c-0.05-5.67-0.08-11.68-0.08-18.01h43.46c0,10.19-0.03,20.08-0.08,29.69
	c-0.05,9.61-0.08,17.42-0.08,23.43c0,10.66,0.03,21.03,0.08,31.11C676.04,518.93,676.07,526.18,676.07,530.61z"/>
<path class="st8" d="M817.06,426.8c-0.36,9.55-0.66,16.56-0.88,21.01c-0.22,4.46-0.42,8.96-0.59,13.49
	c-0.23,6.02-0.42,11.27-0.56,15.76c-0.14,4.49-0.28,8.29-0.39,11.4c-0.33,8.71-2.23,16.01-5.71,21.9
	c-3.47,5.89-7.78,10.46-12.93,13.7c-6.34,3.99-12.52,6.67-18.54,8.06c-6.03,1.38-13.05,1.92-21.07,1.62
	c-9.98-0.38-17.94-1.77-23.9-4.16c-5.96-2.39-11.22-5.42-15.79-9.08c-5.13-4.1-9.01-9.15-11.63-15.15
	c-2.63-5.99-3.78-13.32-3.45-21.97c0.12-3.11,0.27-6.91,0.47-11.4c0.2-4.48,0.41-9.74,0.64-15.75c0.22-5.75,0.38-10.41,0.49-13.97
	c0.11-3.56,0.35-10.15,0.71-19.75l43.43,1.65c-0.33,8.66-0.61,15.69-0.84,21.1c-0.23,5.41-0.41,9.62-0.52,12.63
	c-0.17,4.43-0.32,8.63-0.44,12.59c-0.12,3.96-0.27,8.08-0.43,12.36c-0.2,5.17,0.86,9.13,3.18,11.86c2.32,2.73,5.45,4.17,9.39,4.32
	c4,0.15,7.23-1.07,9.7-3.68c2.47-2.6,3.8-6.44,3.99-11.51c0.16-4.28,0.34-8.66,0.54-13.15c0.2-4.49,0.36-8.42,0.49-11.8
	c0.12-3.22,0.27-7.38,0.44-12.47c0.16-5.1,0.42-12.18,0.77-21.27L817.06,426.8z"/>
<linearGradient id="SVGID_6_" gradientUnits="userSpaceOnUse" x1="407.6234" y1="481.8522" x2="534.5928" y2="481.8522" gradientTransform="matrix(0.9978 -0.0669 0.0669 0.9978 -9.858 24.7308)">
	<stop  offset="0" style="stop-color:#FF0000"/>
	<stop  offset="0.1037" style="stop-color:#FD0D00"/>
	<stop  offset="0.2957" style="stop-color:#F92F00"/>
	<stop  offset="0.5191" style="stop-color:#F25F00"/>
	<stop  offset="0.793" style="stop-color:#EE6C00"/>
	<stop  offset="1" style="stop-color:#EA7900"/>
</linearGradient>
<path class="st9" d="M527.61,536.03l-61.8,4.14l-0.52-7.82c-0.35-5.29-0.72-11.1-1.08-17.43c-0.37-6.29-0.92-15.05-1.68-26.29
	c-0.34-5.03-0.69-10.06-1.06-15.08c-0.19-2.65-0.39-5.38-0.6-8.18c-3.47,0.24-7.15,0.5-11.04,0.77c-6.96,0.5-11.51,0.81-13.64,0.96
	l-7.82,0.52l-3.58-53.47l7.82-0.52c2.47-0.17,9.77-0.64,21.92-1.43c12.13-0.78,23.46-1.53,33.99-2.23
	c8.46-0.57,18.72-1.27,30.78-2.11c12.09-0.84,20.2-1.4,24.35-1.67l7.82-0.52l3.58,53.47l-7.82,0.52c-4.27,0.29-9.72,0.64-16.34,1.05
	c-3.03,0.19-5.8,0.37-8.3,0.53c0.14,2.36,0.28,4.65,0.4,6.85c0.25,4.49,0.57,9.74,0.97,15.75c0.62,9.28,1.2,17.55,1.75,24.81
	c0.55,7.3,1.01,13.82,1.4,19.56L527.61,536.03z M480.43,523.48l30.46-2.04c-0.26-3.62-0.54-7.49-0.85-11.61
	c-0.55-7.3-1.13-15.61-1.75-24.93c-0.41-6.09-0.74-11.4-0.98-15.95c-0.24-4.48-0.54-9.32-0.89-14.49l-0.52-7.82l7.82-0.52
	c4.16-0.28,9.55-0.63,16.17-1.04c3.07-0.19,5.89-0.37,8.45-0.54l-1.48-22.16c-4.27,0.29-9.76,0.67-16.49,1.14
	c-12.08,0.84-22.35,1.54-30.82,2.11c-10.54,0.71-21.88,1.45-34.02,2.24c-5.78,0.37-10.47,0.68-14.05,0.91l1.48,22.14
	c1.69-0.12,3.61-0.25,5.76-0.41c6.96-0.49,13.24-0.93,18.86-1.31l7.75-0.52l0.6,7.74c0.43,5.61,0.83,10.95,1.2,16
	c0.37,5.05,0.72,10.11,1.06,15.17c0.76,11.29,1.32,20.1,1.69,26.42C480.05,517.31,480.24,520.46,480.43,523.48z"/>
<linearGradient id="SVGID_7_" gradientUnits="userSpaceOnUse" x1="552.8817" y1="477.6142" x2="683.4379" y2="477.6142">
	<stop  offset="0" style="stop-color:#FF0000"/>
	<stop  offset="0.1037" style="stop-color:#FD0D00"/>
	<stop  offset="0.2957" style="stop-color:#F92F00"/>
	<stop  offset="0.5191" style="stop-color:#F25F00"/>
	<stop  offset="0.793" style="stop-color:#EE6C00"/>
	<stop  offset="1" style="stop-color:#EA7900"/>
</linearGradient>
<path class="st10" d="M683.44,537.98h-58.2v-7.37c0-2.87,0.03-6.97,0.08-12.3c0.04-3.97,0.06-9.67,0.07-17.01
	c-0.18,0-0.35,0-0.52-0.01c-2.11-0.03-4.55-0.04-7.31-0.04c-2.31,0-4.52,0.01-6.63,0.04c0.01,4.08,0.03,8.23,0.07,12.44
	c0.05,6.81,0.08,12.43,0.08,16.88v7.37h-58.2v-7.37c0-4.66,0.03-10.59,0.08-17.79c0.05-7.32,0.08-20.82,0.08-39.05
	c0-6.27-0.03-13.81-0.08-22.64c-0.05-8.85-0.08-17.69-0.08-26.52v-7.37h58.2v7.37c0,7.1-0.03,13.16-0.08,18.17
	c-0.03,2.68-0.05,5.42-0.06,8.23c2.11,0.03,4.35,0.04,6.71,0.04c2.81,0,5.24-0.01,7.3-0.04c0.14,0,0.28,0,0.43,0
	c-0.01-2.66-0.03-5.43-0.06-8.31c-0.05-5.69-0.08-11.72-0.08-18.08v-7.37h58.2v7.37c0,10.2-0.03,20.11-0.08,29.73
	c-0.05,9.59-0.08,17.39-0.08,23.39c0,10.65,0.03,21,0.08,31.07c0.05,10.1,0.08,17.37,0.08,21.81V537.98z M640.01,523.24h28.67
	c-0.01-3.89-0.03-8.67-0.06-14.36c-0.05-10.09-0.08-20.47-0.08-31.15c0-6.03,0.03-13.85,0.08-23.47c0.04-7.26,0.06-14.68,0.07-22.28
	h-28.7c0.01,3.64,0.03,7.17,0.07,10.57c0.05,5.7,0.08,10.96,0.08,15.78v7.37h-7.37c-3.03,0-5.57,0.01-7.63,0.04
	c-2.1,0.03-4.6,0.04-7.49,0.04c-2.46,0-4.79-0.01-6.98-0.04c-2.13-0.02-4.5-0.04-7.11-0.04h-7.37v-7.37c0-5.46,0.03-10.7,0.08-15.71
	c0.03-3.13,0.06-6.68,0.07-10.64h-28.71c0.01,6.35,0.03,12.7,0.07,19.06c0.05,8.86,0.08,16.43,0.08,22.73
	c0,18.53-0.03,31.7-0.08,39.16c-0.03,3.79-0.05,7.23-0.06,10.31h28.69c-0.01-2.83-0.03-5.96-0.06-9.4
	c-0.05-6.8-0.08-13.43-0.08-19.89v-7.37h7.37c2.6,0,4.97-0.01,7.11-0.04c2.19-0.03,4.49-0.04,6.9-0.04c2.83,0,5.33,0.01,7.49,0.04
	c2.12,0.03,4.68,0.04,7.71,0.04h7.37v7.37c0,11.16-0.03,19.17-0.08,24.5C640.04,520.18,640.02,521.78,640.01,523.24z"/>
<linearGradient id="SVGID_8_" gradientUnits="userSpaceOnUse" x1="706.3728" y1="470.0125" x2="834.3159" y2="470.0125" gradientTransform="matrix(0.9993 0.038 -0.038 0.9993 6.4722 -19.7149)">
	<stop  offset="0" style="stop-color:#FF0000"/>
	<stop  offset="0.1037" style="stop-color:#FD0D00"/>
	<stop  offset="0.2957" style="stop-color:#F92F00"/>
	<stop  offset="0.5191" style="stop-color:#F25F00"/>
	<stop  offset="0.793" style="stop-color:#EE6C00"/>
	<stop  offset="1" style="stop-color:#EA7900"/>
</linearGradient>
<path class="st11" d="M756.11,541.11c-10.92-0.41-19.55-1.95-26.37-4.68c-6.6-2.65-12.54-6.07-17.65-10.17
	c-6.04-4.83-10.67-10.87-13.77-17.94c-3.06-6.99-4.43-15.47-4.06-25.21c0.12-3.13,0.27-6.94,0.47-11.45c0.2-4.47,0.41-9.7,0.63-15.7
	c0.22-5.73,0.38-10.37,0.49-13.92c0.11-3.57,0.35-10.17,0.71-19.81l0.28-7.36l58.16,2.21l-0.28,7.36
	c-0.33,8.67-0.61,15.72-0.84,21.14c-0.23,5.4-0.4,9.6-0.52,12.59c-0.17,4.42-0.32,8.6-0.44,12.54c-0.13,3.98-0.27,8.12-0.43,12.41
	c-0.12,3.2,0.38,5.56,1.44,6.81c0.68,0.8,1.7,1.64,4.05,1.73c2.35,0.09,3.37-0.65,4.07-1.38c1.48-1.56,1.89-4.51,1.97-6.71
	c0.16-4.29,0.34-8.69,0.54-13.19c0.2-4.46,0.36-8.38,0.48-11.75c0.12-3.21,0.27-7.36,0.43-12.44c0.16-5.1,0.42-12.2,0.77-21.3
	l0.28-7.36l58.16,2.21l-0.28,7.36c-0.36,9.49-0.66,16.59-0.88,21.1c-0.22,4.43-0.42,8.9-0.59,13.41c-0.23,6-0.42,11.24-0.56,15.71
	c-0.15,4.51-0.28,8.32-0.4,11.45c-0.38,9.9-2.64,18.44-6.72,25.37c-4.06,6.89-9.22,12.34-15.35,16.19c-7.01,4.41-14.02,7.44-20.82,9
	C772.47,540.83,764.73,541.43,756.11,541.11z M711.02,430.15c-0.21,5.67-0.35,9.78-0.43,12.33c-0.11,3.58-0.28,8.26-0.49,14.03
	c-0.23,6.03-0.44,11.3-0.64,15.79c-0.2,4.47-0.35,8.26-0.47,11.36c-0.28,7.5,0.67,13.8,2.83,18.73c2.16,4.93,5.26,8.97,9.49,12.35
	c3.99,3.2,8.67,5.89,13.93,8c5.15,2.07,12.36,3.29,21.44,3.63c7.33,0.28,13.77-0.21,19.14-1.44c5.18-1.19,10.65-3.58,16.26-7.11
	c4.11-2.59,7.65-6.36,10.5-11.2c2.83-4.8,4.41-11.01,4.69-18.44c0.12-3.1,0.25-6.89,0.39-11.36c0.14-4.49,0.33-9.76,0.56-15.8
	c0.17-4.57,0.37-9.1,0.6-13.58c0.16-3.2,0.36-7.75,0.59-13.56l-28.69-1.09c-0.21,5.62-0.37,10.24-0.49,13.86
	c-0.17,5.12-0.31,9.28-0.44,12.51c-0.13,3.39-0.29,7.34-0.49,11.84c-0.2,4.48-0.38,8.84-0.54,13.1c-0.26,6.89-2.28,12.37-6.01,16.3
	c-3.92,4.14-9.22,6.2-15.32,5.97c-5.99-0.23-11.08-2.62-14.73-6.92c-3.54-4.17-5.2-9.86-4.93-16.91c0.16-4.26,0.3-8.36,0.43-12.31
	c0.12-3.97,0.27-8.19,0.44-12.64c0.11-3.02,0.29-7.24,0.52-12.67c0.16-3.77,0.35-8.34,0.56-13.7L711.02,430.15z"/>
<g>
	<linearGradient id="SVGID_9_" gradientUnits="userSpaceOnUse" x1="1116.7614" y1="515.6419" x2="1116.7614" y2="405.1556">
		<stop  offset="0" style="stop-color:#FDEE00"/>
		<stop  offset="0.1083" style="stop-color:#FBE100"/>
		<stop  offset="0.3089" style="stop-color:#F5BF00"/>
		<stop  offset="0.5191" style="stop-color:#ED9400"/>
		<stop  offset="0.9139" style="stop-color:#EB9300"/>
		<stop  offset="1" style="stop-color:#E89200"/>
	</linearGradient>
	<path class="st12" d="M1175.73,478.3c0,9.61-2.36,18.03-7.08,25.27c-4.72,7.24-10.85,13.06-18.39,17.49
		c-6.55,3.88-14,6.84-22.36,8.89c-8.35,2.05-18.48,3.07-30.39,3.07c-6.77,0-14.81-0.1-24.12-0.29c-9.31-0.19-14.51-0.29-15.6-0.29
		c0-0.87,0.03-6.01,0.08-15.4c0.05-9.39,0.08-23.86,0.08-43.41c0-6.5-0.03-14.32-0.08-23.47c-0.06-9.14-0.08-18.28-0.08-27.4
		c1.31,0,6.44-0.04,15.4-0.12c8.95-0.08,16.19-0.12,21.7-0.12c12.78,0,23.79,1.02,33.05,3.07c9.25,2.05,17.32,5.26,24.2,9.62
		c7.97,5.08,13.9,11.21,17.77,18.39C1173.79,460.79,1175.73,469.02,1175.73,478.3z M1129.62,476.18c0-3.28-0.79-6.36-2.38-9.25
		c-1.58-2.89-3.96-5.19-7.12-6.88c-2.46-1.31-5.05-2.2-7.78-2.66c-2.73-0.46-5.71-0.7-8.93-0.7c-0.27,0-0.66,0-1.15,0
		c0,1.53,0,4.38,0,8.56c0,4.18,0,7.77,0,10.77c0,3.44,0,6.72,0,9.83c0,3.11,0,7.15,0,12.12c0.16,0,0.29,0,0.37,0
		c0.08,0,0.21,0,0.37,0c2.13,0,4.84-0.34,8.15-1.02c3.3-0.68,5.83-1.49,7.57-2.42c4.53-2.46,7.48-5.21,8.85-8.27
		C1128.94,483.19,1129.62,479.83,1129.62,476.18z"/>
</g>
<linearGradient id="SVGID_10_" gradientUnits="userSpaceOnUse" x1="471.1082" y1="517.321" x2="471.1082" y2="406.0363" gradientTransform="matrix(0.9978 -0.0669 0.0669 0.9978 -9.858 24.7308)">
	<stop  offset="0" style="stop-color:#FDEE00"/>
	<stop  offset="0.1083" style="stop-color:#FBE100"/>
	<stop  offset="0.3089" style="stop-color:#F5BF00"/>
	<stop  offset="0.5191" style="stop-color:#ED9400"/>
	<stop  offset="1" style="stop-color:#E89200"/>
</linearGradient>
<path class="st13" d="M546.7,451.83c-4.26,0.29-9.7,0.64-16.31,1.05c-6.61,0.42-11.99,0.76-16.14,1.04
	c0.35,5.21,0.65,10.08,0.89,14.59c0.25,4.52,0.57,9.8,0.98,15.85c0.62,9.3,1.21,17.59,1.75,24.87c0.54,7.28,1.01,13.78,1.39,19.5
	l-46.15,3.09c-0.35-5.27-0.71-11.05-1.08-17.36c-0.37-6.31-0.93-15.09-1.68-26.36c-0.34-5.04-0.69-10.09-1.06-15.13
	c-0.37-5.04-0.76-10.36-1.2-15.96c-5.6,0.38-11.88,0.81-18.83,1.3c-6.95,0.49-11.48,0.81-13.61,0.95l-2.53-37.82
	c2.47-0.17,9.76-0.64,21.9-1.43c12.13-0.78,23.47-1.53,34-2.24c8.46-0.57,18.73-1.27,30.8-2.11c12.07-0.84,20.18-1.39,24.33-1.67
	L546.7,451.83z"/>
<linearGradient id="SVGID_11_" gradientUnits="userSpaceOnUse" x1="618.1598" y1="513.2866" x2="618.1598" y2="397.4692">
	<stop  offset="0" style="stop-color:#FDEE00"/>
	<stop  offset="0.1083" style="stop-color:#FBE100"/>
	<stop  offset="0.3089" style="stop-color:#F5BF00"/>
	<stop  offset="0.5191" style="stop-color:#ED9400"/>
	<stop  offset="1" style="stop-color:#E89200"/>
</linearGradient>
<path class="st14" d="M676.07,530.61h-43.46c0-2.85,0.03-6.93,0.08-12.23c0.05-5.3,0.08-13.44,0.08-24.42
	c-3.06,0-5.66-0.01-7.8-0.04c-2.14-0.03-4.6-0.04-7.4-0.04c-2.37,0-4.64,0.01-6.81,0.04c-2.17,0.03-4.57,0.04-7.2,0.04
	c0,6.44,0.03,13.05,0.08,19.83c0.05,6.78,0.08,12.39,0.08,16.82h-43.46c0-4.64,0.03-10.55,0.08-17.73
	c0.05-7.18,0.08-20.21,0.08-39.11c0-6.28-0.03-13.84-0.08-22.68c-0.05-8.84-0.08-17.67-0.08-26.48h43.46
	c0,7.07-0.03,13.1-0.08,18.09c-0.05,4.99-0.08,10.2-0.08,15.64c2.64,0,5.04,0.01,7.2,0.04c2.16,0.03,4.46,0.04,6.89,0.04
	c2.85,0,5.32-0.01,7.4-0.04c2.09-0.03,4.66-0.04,7.72-0.04c0-4.8-0.03-10.04-0.08-15.71c-0.05-5.67-0.08-11.68-0.08-18.01h43.46
	c0,10.19-0.03,20.08-0.08,29.69c-0.05,9.61-0.08,17.42-0.08,23.43c0,10.66,0.03,21.03,0.08,31.11
	C676.04,518.93,676.07,526.18,676.07,530.61z"/>
<linearGradient id="SVGID_12_" gradientUnits="userSpaceOnUse" x1="770.2834" y1="515.0688" x2="770.2834" y2="401.8646" gradientTransform="matrix(0.9993 0.038 -0.038 0.9993 6.4722 -19.7149)">
	<stop  offset="0" style="stop-color:#FDEE00"/>
	<stop  offset="0.1083" style="stop-color:#FBE100"/>
	<stop  offset="0.3089" style="stop-color:#F5BF00"/>
	<stop  offset="0.5191" style="stop-color:#ED9400"/>
	<stop  offset="1" style="stop-color:#E89200"/>
</linearGradient>
<path class="st15" d="M816.95,428.05c-0.36,9.55-0.66,16.56-0.88,21.01c-0.22,4.46-0.42,8.96-0.59,13.49
	c-0.23,6.02-0.42,11.27-0.56,15.76c-0.14,4.49-0.28,8.29-0.39,11.4c-0.33,8.71-2.23,16.01-5.71,21.9
	c-3.47,5.89-7.78,10.46-12.93,13.7c-6.34,3.99-12.52,6.67-18.54,8.06c-6.03,1.38-13.05,1.92-21.07,1.62
	c-9.98-0.38-17.94-1.77-23.9-4.16c-5.96-2.39-11.22-5.42-15.79-9.08c-5.13-4.1-9.01-9.15-11.63-15.15
	c-2.63-5.99-3.78-13.32-3.45-21.97c0.12-3.11,0.27-6.91,0.47-11.4c0.2-4.48,0.41-9.74,0.64-15.75c0.22-5.75,0.38-10.41,0.49-13.97
	c0.11-3.56,0.35-10.15,0.71-19.75l43.43,1.65c-0.33,8.66-0.61,15.69-0.84,21.1c-0.23,5.41-0.41,9.62-0.52,12.63
	c-0.17,4.43-0.32,8.63-0.44,12.59c-0.12,3.96-0.27,8.08-0.43,12.36c-0.2,5.17,0.86,9.13,3.18,11.86c2.32,2.73,5.45,4.17,9.39,4.32
	c4,0.15,7.23-1.07,9.7-3.68c2.47-2.6,3.8-6.44,3.99-11.51c0.16-4.28,0.34-8.66,0.54-13.15c0.2-4.49,0.36-8.42,0.49-11.8
	c0.12-3.22,0.27-7.38,0.44-12.47c0.16-5.1,0.42-12.18,0.77-21.27L816.95,428.05z"/>
<linearGradient id="SVGID_13_" gradientUnits="userSpaceOnUse" x1="1208.7391" y1="456.7173" x2="1320.4576" y2="456.7173" gradientTransform="matrix(0.9993 0.0384 -0.0384 0.9993 6.608 -27.33)">
	<stop  offset="0" style="stop-color:#FF0000"/>
	<stop  offset="0.1037" style="stop-color:#FD0D00"/>
	<stop  offset="0.2957" style="stop-color:#F92F00"/>
	<stop  offset="0.5191" style="stop-color:#F25F00"/>
	<stop  offset="0.793" style="stop-color:#EE6C00"/>
	<stop  offset="1" style="stop-color:#EA7900"/>
</linearGradient>
<path class="st16" d="M1305.63,491.96l0.94-24.58l1.5,0.06l1.94-50.49l-9.82-0.38c-2.01-0.08-9-0.33-20.99-0.77
	c-11.96-0.43-21.84-0.8-29.64-1.1c-7.74-0.3-15.57-0.61-23.5-0.94c-7.95-0.33-13.59-0.56-16.92-0.69l-9.82-0.38l-0.38,9.82
	c-0.34,8.83-0.65,17.67-0.94,26.52c-0.29,8.81-0.55,16.35-0.79,22.61c-0.73,19.12-1.27,32.43-1.64,40.67
	c-0.37,8.31-0.6,13.68-0.7,16.12l-0.38,9.82l9.82,0.38c2.27,0.09,7.82,0.29,16.64,0.6c8.8,0.31,17.28,0.62,25.45,0.94
	c6.96,0.27,16.06,0.63,27.3,1.09c11.27,0.46,18.81,0.76,22.61,0.91l9.82,0.38l1.94-50.49L1305.63,491.96z"/>
<path class="st17" d="M955.72,583.43c-28.19,1.76-56.1,6.97-81.89,18.22c17.6,7.93,37.12,12.35,57.67,12.35
	c32.3,0,62.05-10.91,85.78-29.23C997.41,580.27,975.71,582.18,955.72,583.43z"/>
<path class="st17" d="M1016.31,437.08c-12.34,15.32-17.46,32.56-17.71,52.08c-0.28,21.62,4.93,42.96,12.73,63.02
	c4.36,11.22,9.64,22.1,15.58,32.6c25.98-25.5,42.1-61,42.1-100.28c0-26.72-7.46-51.7-20.41-72.97
	C1035.83,416.67,1024.67,426.7,1016.31,437.08z"/>
<linearGradient id="SVGID_14_" gradientUnits="userSpaceOnUse" x1="1264.6075" y1="485.1173" x2="1264.6075" y2="386.3426" gradientTransform="matrix(0.9993 0.0384 -0.0384 0.9993 6.608 -27.33)">
	<stop  offset="0" style="stop-color:#FDEE00"/>
	<stop  offset="0.1083" style="stop-color:#FBE100"/>
	<stop  offset="0.3089" style="stop-color:#F5BF00"/>
	<stop  offset="0.5191" style="stop-color:#ED9400"/>
	<stop  offset="1" style="stop-color:#E89200"/>
</linearGradient>
<path class="st18" d="M1299.93,535.84c-4.07-0.16-12.15-0.48-24.23-0.97c-12.08-0.49-21.85-0.88-29.32-1.17
	c-8.77-0.34-17.88-0.67-27.33-1.01c-9.45-0.33-15.39-0.55-17.82-0.64c0.1-2.6,0.35-8.34,0.75-17.23c0.4-8.88,0.99-23.45,1.76-43.7
	c0.26-6.73,0.54-14.84,0.85-24.32c0.31-9.48,0.64-18.94,1.01-28.39c3.56,0.14,9.6,0.38,18.12,0.74c8.51,0.36,16.93,0.69,25.25,1.01
	c8.37,0.32,18.98,0.72,31.83,1.18c12.84,0.47,20.34,0.74,22.49,0.82l-1.27,33.1c-1.47-0.06-5.38-0.22-11.71-0.49
	c-6.34-0.27-10.64-0.45-12.9-0.54c-3.23-0.12-8.01-0.29-14.34-0.51c-6.34-0.21-11.24-0.39-14.68-0.52c-0.05,1.42-0.13,3.38-0.23,5.9
	c-0.1,2.52-0.17,4.43-0.22,5.73c3.51,0.13,8.24,0.33,14.22,0.59c5.97,0.26,10.53,0.45,13.7,0.57c3.85,0.15,7.98,0.29,12.39,0.43
	c4.41,0.14,8.32,0.28,11.72,0.41l-0.91,23.68c-2.04-0.08-6.06-0.25-12.05-0.51c-6-0.26-10.1-0.43-12.3-0.52
	c-3.17-0.12-7.68-0.28-13.54-0.48c-5.86-0.2-10.57-0.36-14.13-0.5c-0.05,1.3-0.13,3.3-0.23,5.98c-0.1,2.69-0.18,4.74-0.24,6.15
	c3.51,0.13,8.7,0.35,15.57,0.64c6.87,0.29,11.95,0.5,15.23,0.63c3.85,0.15,8.11,0.3,12.77,0.45c4.67,0.15,8.36,0.28,11.08,0.38
	L1299.93,535.84z"/>
<linearGradient id="SVGID_15_" gradientUnits="userSpaceOnUse" x1="1301.4125" y1="510.0685" x2="1455.2094" y2="510.0685" gradientTransform="matrix(0.9976 -0.0687 0.0687 0.9976 -8.7854 58.1424)">
	<stop  offset="0" style="stop-color:#FF0000"/>
	<stop  offset="0.1037" style="stop-color:#FD0D00"/>
	<stop  offset="0.2957" style="stop-color:#F92F00"/>
	<stop  offset="0.5191" style="stop-color:#F25F00"/>
	<stop  offset="0.793" style="stop-color:#EE6C00"/>
	<stop  offset="1" style="stop-color:#EA7900"/>
</linearGradient>
<path class="st19" d="M1454.19,483.06c-2-2.68-4.02-5.38-6.05-8.1c1.95-2.52,3.68-5.34,5.2-8.44c3.32-6.77,4.72-14.37,4.15-22.59
	c-0.62-8.98-4.31-17.19-10.99-24.4c-6.65-7.18-16.49-11.95-29.96-14.56c-7.86-1.62-16.46-2.34-25.57-2.15
	c-11.53,0.24-27.73,1.09-48.09,2.83c-5.21,0.44-9.37,0.77-12.47,0.99l-10.65,0.73l0.73,10.65c0.66,9.58,1.35,19.16,2.07,28.76
	c0.72,9.56,1.31,17.73,1.78,24.52c1.4,20.29,2.33,34.28,2.78,41.58c0.45,7.33,0.88,14.01,1.29,20.04l0.73,10.65l68.41-4.71
	l-0.73-10.65c-0.26-3.72-0.53-7.59-0.82-11.62c0.3,0.43,0.59,0.85,0.88,1.25c4.84,6.87,9.18,12.96,12.92,18.09l4.59,6.31
	l67.29-22.35L1454.19,483.06z"/>
<linearGradient id="SVGID_16_" gradientUnits="userSpaceOnUse" x1="1372.3695" y1="545.6898" x2="1379.4677" y2="413.3774" gradientTransform="matrix(0.9976 -0.0687 0.0687 0.9976 -8.7854 58.1424)">
	<stop  offset="0" style="stop-color:#FDEE00"/>
	<stop  offset="0.1083" style="stop-color:#FBE100"/>
	<stop  offset="0.3089" style="stop-color:#F5BF00"/>
	<stop  offset="0.5191" style="stop-color:#ED9400"/>
	<stop  offset="1" style="stop-color:#E89200"/>
</linearGradient>
<path class="st20" d="M1467.07,514.25l-48.16,16c-3.93-5.4-8.42-11.69-13.46-18.86c-5.05-7.17-12.51-18.14-22.39-32.92l0.61-3.03
	c1.6-0.41,3.64-1.25,6.12-2.5s4.44-2.81,5.89-4.66c2.05-2.62,3.28-4.81,3.67-6.59c0.39-1.78,0.51-3.81,0.35-6.09
	c-0.17-2.46-0.92-4.8-2.25-7c-1.33-2.2-3.05-3.77-5.17-4.72c-1.86-0.78-3.61-1.28-5.22-1.5c-1.62-0.22-3.45-0.26-5.49-0.12
	c-0.78,0.05-1.62,0.11-2.52,0.17c0.1,1.5,0.33,5.18,0.67,11.05c0.34,5.86,0.83,13.3,1.45,22.32c0.82,11.9,1.55,22.02,2.18,30.37
	c0.64,8.35,1.2,16.13,1.7,23.34l-49.49,3.41c-0.43-6.31-0.89-13.3-1.35-20.97c-0.47-7.67-1.44-22.26-2.92-43.77
	c-0.49-7.15-1.12-15.76-1.87-25.82c-0.75-10.06-1.47-20.11-2.17-30.15c3.31-0.23,7.73-0.58,13.29-1.05
	c5.55-0.47,10.82-0.88,15.81-1.22c13.88-0.96,25.21-1.52,33.98-1.71c8.77-0.18,16.9,0.5,24.37,2.04
	c11.75,2.27,20.25,6.24,25.5,11.92c5.25,5.68,8.11,11.94,8.59,18.79c0.46,6.67-0.62,12.68-3.24,18.02
	c-2.62,5.34-5.91,9.54-9.87,12.59l0.04,0.63c3.98,5.34,7.92,10.61,11.8,15.81C1451.38,493.22,1457.91,501.97,1467.07,514.25z"/>
<linearGradient id="SVGID_17_" gradientUnits="userSpaceOnUse" x1="1086.074" y1="641.1318" x2="1252.6482" y2="641.1318" gradientTransform="matrix(0.9901 0.1404 -0.1404 0.9901 32.7159 -123.0219)">
	<stop  offset="0" style="stop-color:#5400C0"/>
	<stop  offset="0.1664" style="stop-color:#5F0DBE"/>
	<stop  offset="0.4748" style="stop-color:#7C2FB9"/>
	<stop  offset="0.8884" style="stop-color:#AA67B0"/>
	<stop  offset="1" style="stop-color:#B777AE"/>
</linearGradient>
<path class="st21" d="M1172.12,682.24c-0.82,5.77-1.7,11.85-2.64,18.25c-0.94,6.4-1.79,12.27-2.55,17.61
	c-0.88,6.19-1.59,11.32-2.13,15.38c-0.54,4.06-1.64,11.97-3.31,23.71c-1.26,0.18-6.05-0.1-14.37-0.84
	c-8.32-0.74-14.79-1.44-19.42-2.1c-14.95-2.12-28.53-5.55-40.75-10.3c-12.22-4.75-24.06-11.96-35.54-21.65
	c-8.15-7.04-14.27-15.35-18.36-24.93c-4.09-9.58-5.33-20.04-3.72-31.35c1.52-10.75,5.33-20.05,11.42-27.9
	c6.09-7.85,14.51-14.39,25.27-19.62c10.92-5.35,23.92-8.88,38.97-10.59c15.06-1.71,32.26-1.2,51.63,1.55
	c1.85,0.26,3.45,0.51,4.8,0.74c1.35,0.23,2.8,0.45,4.37,0.67l0.51,49.41c-1.28-0.18-2.76-0.39-4.43-0.63
	c-1.67-0.24-3.61-0.51-5.82-0.83c-2.71-0.38-7.63-0.9-14.76-1.55c-7.13-0.65-13.98-0.64-20.54,0.03
	c-9.05,0.82-16.43,3.17-22.13,7.05c-5.71,3.87-8.99,8.87-9.86,15c-0.72,5.05-0.17,9.62,1.65,13.69c1.82,4.07,4.25,7.41,7.29,10.02
	c1.22,1.12,3.09,2.44,5.59,3.95c2.51,1.52,5.14,2.76,7.91,3.74c0.22-1.56,0.76-5.37,1.62-11.42c0.86-6.05,1.97-14.39,3.33-25.02
	L1172.12,682.24z"/>
<g>
	
		<linearGradient id="SVGID_18_" gradientUnits="userSpaceOnUse" x1="1099.0417" y1="641.1318" x2="1242.6888" y2="641.1318" gradientTransform="matrix(0.9901 0.1404 -0.1404 0.9901 32.7159 -123.0219)">
		<stop  offset="0" style="stop-color:#D7C4B0"/>
		<stop  offset="0.3552" style="stop-color:#D2B7B8"/>
		<stop  offset="0.5447" style="stop-color:#CFAEBE"/>
		<stop  offset="1" style="stop-color:#C595CC"/>
	</linearGradient>
	<path class="st22" d="M1173.61,682.46c-0.82,5.77-1.7,11.85-2.64,18.25c-0.94,6.4-1.79,12.27-2.55,17.61
		c-0.88,6.19-1.59,11.32-2.13,15.38c-0.54,4.06-1.64,11.97-3.31,23.71c-1.26,0.18-6.05-0.1-14.37-0.84
		c-8.32-0.74-14.79-1.44-19.42-2.1c-14.95-2.12-28.53-5.55-40.75-10.3c-12.22-4.75-24.06-11.96-35.54-21.65
		c-8.15-7.04-14.27-15.35-18.36-24.93c-4.09-9.58-5.33-20.04-3.72-31.35c1.52-10.75,5.33-20.05,11.42-27.9
		c6.09-7.85,14.51-14.39,25.27-19.62c10.92-5.35,23.92-8.88,38.97-10.59c15.06-1.71,32.26-1.2,51.63,1.55
		c1.85,0.26,3.45,0.51,4.8,0.74c1.35,0.23,2.8,0.45,4.37,0.67l0.51,49.41c-1.28-0.18-2.76-0.39-4.43-0.63
		c-1.67-0.24-3.61-0.51-5.82-0.83c-2.71-0.38-7.63-0.9-14.76-1.55c-7.13-0.65-13.98-0.64-20.54,0.03
		c-9.05,0.82-16.43,3.17-22.13,7.05c-5.71,3.87-8.99,8.87-9.86,15c-0.72,5.05-0.17,9.62,1.65,13.69c1.82,4.07,4.25,7.41,7.29,10.02
		c1.22,1.12,3.09,2.44,5.59,3.95c2.51,1.52,5.14,2.76,7.91,3.74c0.22-1.56,0.76-5.37,1.62-11.42c0.86-6.05,1.97-14.39,3.33-25.02
		L1173.61,682.46z"/>
</g>
<g>
	<g>
		<linearGradient id="SVGID_19_" gradientUnits="userSpaceOnUse" x1="888.5394" y1="491.3229" x2="964.3402" y2="353.0102">
			<stop  offset="0" style="stop-color:#00FF00"/>
			<stop  offset="0.0528" style="stop-color:#0DFF00"/>
			<stop  offset="0.1506" style="stop-color:#30FF00"/>
			<stop  offset="0.2829" style="stop-color:#68FF00"/>
			<stop  offset="0.4427" style="stop-color:#B4FF00"/>
			<stop  offset="0.5191" style="stop-color:#DBFF00"/>
			<stop  offset="0.568" style="stop-color:#CEF900"/>
			<stop  offset="0.6586" style="stop-color:#ABE900"/>
			<stop  offset="0.7811" style="stop-color:#73CF00"/>
			<stop  offset="0.9292" style="stop-color:#27AB00"/>
			<stop  offset="1" style="stop-color:#009900"/>
		</linearGradient>
		<path class="st23" d="M878.76,484.73c2.29-5.61,5.06-12.45,8.29-20.51c3.23-8.06,6.79-16.91,10.66-26.54l40.76-13.03
			c2.46,5.55,5.63,12.42,9.52,20.6c3.89,8.18,9.24,18.97,16.05,32.38l0.64-0.26c2.85-6.97,6.03-14.83,9.54-23.57
			c2.28-5.68,13.1-32.87,21.37-53.61c-16.09-10.71-35.41-16.97-56.19-16.97c-56.08,0-101.53,45.46-101.53,101.53
			c0,22.07,7.07,42.49,19.03,59.14c3.08-11.16,5.49-19.41,6.58-22.05C868.22,510.45,873.31,498.08,878.76,484.73z"/>
		<linearGradient id="SVGID_20_" gradientUnits="userSpaceOnUse" x1="885.6757" y1="489.7126" x2="1041.6898" y2="524.1479">
			<stop  offset="0" style="stop-color:#00FF00"/>
			<stop  offset="0.0528" style="stop-color:#0DFF00"/>
			<stop  offset="0.1506" style="stop-color:#30FF00"/>
			<stop  offset="0.2829" style="stop-color:#68FF00"/>
			<stop  offset="0.4427" style="stop-color:#B4FF00"/>
			<stop  offset="0.5191" style="stop-color:#DBFF00"/>
			<stop  offset="0.568" style="stop-color:#CEF900"/>
			<stop  offset="0.6586" style="stop-color:#ABE900"/>
			<stop  offset="0.7811" style="stop-color:#73CF00"/>
			<stop  offset="0.9292" style="stop-color:#27AB00"/>
			<stop  offset="1" style="stop-color:#009900"/>
		</linearGradient>
		<path class="st24" d="M1017.7,457.39c-3.45,8.3-6.58,15.87-9.38,22.73c-3.62,8.86-7.77,19.09-12.46,30.7
			c-4.69,11.61-8.21,20.3-10.57,26.09l-38.61,12.31c-5.35-14.23-10.42-26.54-15.22-36.9c-4.8-10.37-8.12-17.35-9.96-20.95
			l-0.85,0.35c-3.5,8.56-7.55,18.55-12.15,29.95c-1.71,4.25-13.36,23.61-27.31,46.24c16.49,11.57,36.56,18.38,58.23,18.38
			c56.08,0,101.53-45.46,101.53-101.53c0-18.59-5.02-36-13.74-50.98C1022.65,445.17,1018.9,454.49,1017.7,457.39z"/>
		<path class="st25" d="M1027.22,433.78c8.5-21.2,19.84-49.57,22.91-57.1h-45.1c-1.25,3.06-4.97,12.36-9.42,23.52
			C1008.55,408.81,1019.38,420.31,1027.22,433.78z"/>
		<path class="st25" d="M856.92,543.9c-10.19,36.93-27.72,105.82-29.24,109.53c0,0,30.01-47.4,53.51-85.53
			C871.81,561.33,863.6,553.21,856.92,543.9z"/>
	</g>
	<g>
		<linearGradient id="SVGID_21_" gradientUnits="userSpaceOnUse" x1="888.5394" y1="491.3229" x2="964.3402" y2="353.0102">
			<stop  offset="0" style="stop-color:#00FF00"/>
			<stop  offset="0.0528" style="stop-color:#0DFF00"/>
			<stop  offset="0.1506" style="stop-color:#30FF00"/>
			<stop  offset="0.2829" style="stop-color:#68FF00"/>
			<stop  offset="0.4427" style="stop-color:#B4FF00"/>
			<stop  offset="0.5191" style="stop-color:#DBFF00"/>
			<stop  offset="0.568" style="stop-color:#CEF900"/>
			<stop  offset="0.6586" style="stop-color:#ABE900"/>
			<stop  offset="0.7811" style="stop-color:#73CF00"/>
			<stop  offset="0.9292" style="stop-color:#27AB00"/>
			<stop  offset="1" style="stop-color:#009900"/>
		</linearGradient>
		<path class="st26" d="M878.76,484.73c2.29-5.61,5.06-12.45,8.29-20.51c3.23-8.06,6.79-16.91,10.66-26.54l40.76-13.03
			c2.46,5.55,5.63,12.42,9.52,20.6c3.89,8.18,9.24,18.97,16.05,32.38l0.64-0.26c2.85-6.97,6.03-14.83,9.54-23.57
			c2.28-5.68,13.1-32.87,21.37-53.61c-16.09-10.71-35.41-16.97-56.19-16.97c-56.08,0-101.53,45.46-101.53,101.53
			c0,22.07,7.07,42.49,19.03,59.14c3.08-11.16,5.49-19.41,6.58-22.05C868.22,510.45,873.31,498.08,878.76,484.73z"/>
		<path class="st27" d="M845.29,496.46c0-53.96,43.74-97.69,97.69-97.69c17.51,0,33.93,4.61,48.14,12.68
			c1.53-3.85,3.05-7.65,4.49-11.25c-16.09-10.71-35.41-16.97-56.19-16.97c-56.08,0-101.53,45.46-101.53,101.53
			c0,22.07,7.07,42.49,19.03,59.14c0.08-0.28,0.15-0.55,0.23-0.83C849.6,529.22,845.29,513.35,845.29,496.46z"/>
		<linearGradient id="SVGID_22_" gradientUnits="userSpaceOnUse" x1="885.6757" y1="489.7126" x2="1041.6898" y2="524.1479">
			<stop  offset="0" style="stop-color:#00FF00"/>
			<stop  offset="0.0528" style="stop-color:#0DFF00"/>
			<stop  offset="0.1506" style="stop-color:#30FF00"/>
			<stop  offset="0.2829" style="stop-color:#68FF00"/>
			<stop  offset="0.4427" style="stop-color:#B4FF00"/>
			<stop  offset="0.5191" style="stop-color:#DBFF00"/>
			<stop  offset="0.568" style="stop-color:#CEF900"/>
			<stop  offset="0.6586" style="stop-color:#ABE900"/>
			<stop  offset="0.7811" style="stop-color:#73CF00"/>
			<stop  offset="0.9292" style="stop-color:#27AB00"/>
			<stop  offset="1" style="stop-color:#009900"/>
		</linearGradient>
		<path class="st28" d="M1017.7,457.39c-3.45,8.3-6.58,15.87-9.38,22.73c-3.62,8.86-7.77,19.09-12.46,30.7
			c-4.69,11.61-8.21,20.3-10.57,26.09l-38.61,12.31c-5.35-14.23-10.42-26.54-15.22-36.9c-4.8-10.37-8.12-17.35-9.96-20.95
			l-0.85,0.35c-3.5,8.56-7.55,18.55-12.15,29.95c-1.71,4.25-13.36,23.61-27.31,46.24c16.49,11.57,36.56,18.38,58.23,18.38
			c56.08,0,101.53-45.46,101.53-101.53c0-18.59-5.02-36-13.74-50.98C1022.65,445.17,1018.9,454.49,1017.7,457.39z"/>
		<path class="st29" d="M1027.22,433.78c8.5-21.2,19.84-49.57,22.91-57.1h-45.1c-1.25,3.06-4.97,12.36-9.42,23.52
			C1008.55,408.81,1019.38,420.31,1027.22,433.78z"/>
		<g>
			<path class="st29" d="M995.78-58.54c-0.06,0.14-0.11,0.28-0.17,0.42c1.78,1.18,3.51,2.43,5.21,3.72
				C999.19-55.83,997.51-57.21,995.78-58.54z"/>
			<path class="st30" d="M1042.81,376.37c-4.27,10.59-12.97,32.35-20.08,50.08c1.59,2.28,3.09,4.62,4.49,7.02
				c8.5-21.2,19.84-49.57,22.91-57.1H1042.81z"/>
		</g>
		<path class="st29" d="M856.92,543.9c-10.19,36.93-27.72,105.82-29.24,109.53c0,0,30.01-47.4,53.51-85.53
			C871.81,561.33,863.6,553.21,856.92,543.9z"/>
		<path class="st30" d="M832.14,637.38c-2.39,8.98-4.04,15.03-4.46,16.06c0,0,30.01-47.4,53.51-85.53c-1.3-0.91-2.56-1.85-3.81-2.82
			C860.21,592.85,840.72,623.79,832.14,637.38z"/>
	</g>
</g>
<linearGradient id="SVGID_23_" gradientUnits="userSpaceOnUse" x1="682.1917" y1="708.2288" x2="830.54" y2="708.2288" gradientTransform="matrix(0.9999 -0.0124 0.0124 0.9999 -15.7245 -30.3681)">
	<stop  offset="0" style="stop-color:#5400C0"/>
	<stop  offset="0.1664" style="stop-color:#5F0DBE"/>
	<stop  offset="0.4748" style="stop-color:#7C2FB9"/>
	<stop  offset="0.8884" style="stop-color:#AA67B0"/>
	<stop  offset="1" style="stop-color:#B777AE"/>
</linearGradient>
<path class="st31" d="M812.97,739.84c-5.18,0.06-15.44,0.17-30.79,0.33c-15.35,0.15-27.77,0.29-37.26,0.41
	c-11.14,0.14-22.72,0.3-34.72,0.49c-12.01,0.19-19.56,0.3-22.64,0.33c-0.04-3.31-0.1-10.6-0.16-21.89
	c-0.07-11.29-0.26-29.8-0.58-55.54c-0.11-8.55-0.27-18.85-0.49-30.89c-0.22-12.04-0.41-24.06-0.56-36.07
	c4.53-0.06,12.2-0.13,23.02-0.23c10.82-0.1,21.51-0.21,32.08-0.34c10.64-0.13,24.12-0.32,40.44-0.56
	c16.32-0.24,25.84-0.38,28.58-0.41l0.52,42.06c-1.87,0.02-6.83,0.07-14.88,0.13c-8.05,0.06-13.52,0.11-16.39,0.15
	c-4.1,0.05-10.17,0.14-18.22,0.28c-8.05,0.14-14.27,0.23-18.65,0.29c0.02,1.8,0.05,4.3,0.09,7.49c0.04,3.2,0.07,5.63,0.09,7.28
	c4.46-0.06,10.48-0.11,18.06-0.17c7.58-0.06,13.39-0.11,17.42-0.16c4.89-0.06,10.14-0.14,15.74-0.25c5.61-0.1,10.57-0.18,14.88-0.24
	l0.37,30.09c-2.59,0.03-7.69,0.08-15.31,0.14c-7.62,0.06-12.83,0.11-15.64,0.14c-4.03,0.05-9.76,0.14-17.2,0.27
	c-7.44,0.13-13.43,0.22-17.95,0.28c0.02,1.65,0.05,4.19,0.09,7.6c0.04,3.42,0.07,6.02,0.1,7.82c4.46-0.06,11.05-0.12,19.79-0.19
	c8.74-0.07,15.19-0.13,19.36-0.19c4.89-0.06,10.3-0.14,16.23-0.26c5.93-0.11,10.62-0.19,14.07-0.23L812.97,739.84z"/>
<linearGradient id="SVGID_24_" gradientUnits="userSpaceOnUse" x1="756.3658" y1="777.101" x2="756.3658" y2="651.6797" gradientTransform="matrix(0.9999 -0.0124 0.0124 0.9999 -15.7245 -30.3681)">
	<stop  offset="0" style="stop-color:#D7C4B0"/>
	<stop  offset="0.3552" style="stop-color:#D2B7B8"/>
	<stop  offset="0.5447" style="stop-color:#CFAEBE"/>
	<stop  offset="1" style="stop-color:#C595CC"/>
</linearGradient>
<path class="st32" d="M812.97,739.84c-5.18,0.06-15.44,0.17-30.79,0.33c-15.35,0.15-27.77,0.29-37.26,0.41
	c-11.14,0.14-22.72,0.3-34.72,0.49c-12.01,0.19-19.56,0.3-22.64,0.33c-0.04-3.31-0.1-10.6-0.16-21.89
	c-0.07-11.29-0.26-29.8-0.58-55.54c-0.11-8.55-0.27-18.85-0.49-30.89c-0.22-12.04-0.41-24.06-0.56-36.07
	c4.53-0.06,12.2-0.13,23.02-0.23c10.82-0.1,21.51-0.21,32.08-0.34c10.64-0.13,24.12-0.32,40.44-0.56
	c16.32-0.24,25.84-0.38,28.58-0.41l0.52,42.06c-1.87,0.02-6.83,0.07-14.88,0.13c-8.05,0.06-13.52,0.11-16.39,0.15
	c-4.1,0.05-10.17,0.14-18.22,0.28c-8.05,0.14-14.27,0.23-18.65,0.29c0.02,1.8,0.05,4.3,0.09,7.49c0.04,3.2,0.07,5.63,0.09,7.28
	c4.46-0.06,10.48-0.11,18.06-0.17c7.58-0.06,13.39-0.11,17.42-0.16c4.89-0.06,10.14-0.14,15.74-0.25c5.61-0.1,10.57-0.18,14.88-0.24
	l0.37,30.09c-2.59,0.03-7.69,0.08-15.31,0.14c-7.62,0.06-12.83,0.11-15.64,0.14c-4.03,0.05-9.76,0.14-17.2,0.27
	c-7.44,0.13-13.43,0.22-17.95,0.28c0.02,1.65,0.05,4.19,0.09,7.6c0.04,3.42,0.07,6.02,0.1,7.82c4.46-0.06,11.05-0.12,19.79-0.19
	c8.74-0.07,15.19-0.13,19.36-0.19c4.89-0.06,10.3-0.14,16.23-0.26c5.93-0.11,10.62-0.19,14.07-0.23L812.97,739.84z"/>
<g>
	<defs>
		<path id="SVGID_25_" d="M812.97,739.84c-5.18,0.06-15.44,0.17-30.79,0.33c-15.35,0.15-27.77,0.29-37.26,0.41
			c-11.14,0.14-22.72,0.3-34.72,0.49c-12.01,0.19-19.56,0.3-22.64,0.33c-0.04-3.31-0.1-10.6-0.16-21.89
			c-0.07-11.29-0.26-29.8-0.58-55.54c-0.11-8.55-0.27-18.85-0.49-30.89c-0.22-12.04-0.41-24.06-0.56-36.07
			c4.53-0.06,12.2-0.13,23.02-0.23c10.82-0.1,21.51-0.21,32.08-0.34c10.64-0.13,24.12-0.32,40.44-0.56
			c16.32-0.24,25.84-0.38,28.58-0.41l0.52,42.06c-1.87,0.02-6.83,0.07-14.88,0.13c-8.05,0.06-13.52,0.11-16.39,0.15
			c-4.1,0.05-10.17,0.14-18.22,0.28c-8.05,0.14-14.27,0.23-18.65,0.29c0.02,1.8,0.05,4.3,0.09,7.49c0.04,3.2,0.07,5.63,0.09,7.28
			c4.46-0.06,10.48-0.11,18.06-0.17c7.58-0.06,13.39-0.11,17.42-0.16c4.89-0.06,10.14-0.14,15.74-0.25
			c5.61-0.1,10.57-0.18,14.88-0.24l0.37,30.09c-2.59,0.03-7.69,0.08-15.31,0.14c-7.62,0.06-12.83,0.11-15.64,0.14
			c-4.03,0.05-9.76,0.14-17.2,0.27c-7.44,0.13-13.43,0.22-17.95,0.28c0.02,1.65,0.05,4.19,0.09,7.6c0.04,3.42,0.07,6.02,0.1,7.82
			c4.46-0.06,11.05-0.12,19.79-0.19c8.74-0.07,15.19-0.13,19.36-0.19c4.89-0.06,10.3-0.14,16.23-0.26
			c5.93-0.11,10.62-0.19,14.07-0.23L812.97,739.84z"/>
	</defs>
	<clipPath id="SVGID_26_">
		<use xlink:href="#SVGID_25_"  style="overflow:visible;"/>
	</clipPath>
	<g class="st33">
		<circle class="st34" cx="804.84" cy="709.81" r="22.4"/>
		<circle class="st34" cx="736.49" cy="721.54" r="14.08"/>
		<circle class="st34" cx="691.29" cy="690.1" r="7.68"/>
		<circle class="st34" cx="808.52" cy="671.46" r="9.75"/>
		<circle class="st34" cx="840.26" cy="650.35" r="5.32"/>
		<circle class="st34" cx="767.14" cy="612.34" r="7.68"/>
		<circle class="st34" cx="694.48" cy="637.57" r="3.84"/>
		<circle class="st34" cx="794.33" cy="636.33" r="3.84"/>
		<circle class="st34" cx="833.14" cy="669.13" r="3.84"/>
		<circle class="st34" cx="774.99" cy="728.75" r="3.84"/>
		<circle class="st34" cx="705.87" cy="729.61" r="3.84"/>
		<circle class="st34" cx="705.1" cy="668.16" r="3.84"/>
		<circle class="st34" cx="706.05" cy="641.26" r="2.56"/>
		<circle class="st34" cx="706.69" cy="692.47" r="2.56"/>
		<circle class="st34" cx="832.13" cy="690.91" r="2.56"/>
		<circle class="st34" cx="829.03" cy="647.42" r="2.56"/>
		<circle class="st34" cx="790.63" cy="647.9" r="2.56"/>
		<circle class="st34" cx="791.04" cy="681.18" r="2.56"/>
		<circle class="st34" cx="763.23" cy="709.69" r="2.56"/>
		<circle class="st34" cx="688.99" cy="710.61" r="2.56"/>
		<circle class="st34" cx="771.16" cy="626.37" r="2.56"/>
		<circle class="st34" cx="749.13" cy="604.88" r="2.56"/>
	</g>
</g>
<g>
	<defs>
		<path id="SVGID_27_" d="M996.37,669.56c-0.08,5.82-0.18,11.97-0.3,18.44c-0.12,6.47-0.22,12.4-0.29,17.79
			c-0.08,6.25-0.13,11.43-0.15,15.53c-0.02,4.1-0.1,12.08-0.26,23.94c-1.23,0.34-6.01,0.68-14.36,1
			c-8.35,0.32-14.85,0.45-19.53,0.39c-15.1-0.2-29.01-1.87-41.73-5.03c-12.72-3.15-25.39-8.8-38.01-16.95
			c-8.98-5.94-16.11-13.41-21.38-22.39c-5.27-8.98-7.84-19.19-7.69-30.62c0.14-10.85,2.73-20.56,7.77-29.13
			c5.04-8.56,12.56-16.12,22.57-22.68c10.15-6.7,22.59-11.85,37.3-15.47c14.72-3.62,31.85-5.3,51.4-5.04
			c1.87,0.02,3.49,0.07,4.85,0.12c1.36,0.05,2.84,0.09,4.42,0.11l6.8,48.95c-1.29-0.02-2.79-0.04-4.48-0.06
			c-1.69-0.02-3.65-0.05-5.88-0.08c-2.73-0.04-7.68,0.08-14.83,0.34c-7.16,0.27-13.95,1.15-20.37,2.64
			c-8.87,1.97-15.89,5.24-21.05,9.81c-5.17,4.57-7.79,9.95-7.87,16.13c-0.07,5.1,1.06,9.56,3.38,13.36
			c2.32,3.81,5.16,6.81,8.51,9.01c1.35,0.95,3.37,2.02,6.05,3.21c2.68,1.19,5.45,2.09,8.32,2.7c0.02-1.58,0.07-5.43,0.15-11.54
			c0.08-6.11,0.12-14.52,0.12-25.24L996.37,669.56z"/>
	</defs>
	<clipPath id="SVGID_28_">
		<use xlink:href="#SVGID_27_"  style="overflow:visible;"/>
	</clipPath>
	<g class="st35">
		<circle class="st34" cx="960.12" cy="734.77" r="22.4"/>
		<circle class="st34" cx="891.27" cy="726.43" r="14.08"/>
		<circle class="st34" cx="856.98" cy="683.35" r="7.68"/>
		<circle class="st34" cx="974.63" cy="699.08" r="9.75"/>
		<circle class="st34" cx="1011.09" cy="687.94" r="5.32"/>
		<circle class="st34" cx="951.92" cy="630.58" r="7.68"/>
		<circle class="st34" cx="875.08" cy="633.94" r="3.84"/>
		<circle class="st34" cx="971.1" cy="661.35" r="3.84"/>
		<circle class="st34" cx="998.89" cy="703.9" r="3.84"/>
		<circle class="st34" cx="926.09" cy="744.36" r="3.84"/>
		<circle class="st34" cx="859.62" cy="725.38" r="3.84"/>
		<circle class="st34" cx="876.49" cy="666.29" r="3.84"/>
		<circle class="st34" cx="885.1" cy="640.79" r="2.56"/>
		<circle class="st34" cx="871.04" cy="690.03" r="2.56"/>
		<circle class="st34" cx="991.68" cy="724.48" r="2.56"/>
		<circle class="st34" cx="1001.17" cy="681.92" r="2.56"/>
		<circle class="st34" cx="964.24" cy="671.38" r="2.56"/>
		<circle class="st34" cx="955.1" cy="703.38" r="2.56"/>
		<circle class="st34" cx="920.29" cy="722.73" r="2.56"/>
		<circle class="st34" cx="848.89" cy="702.35" r="2.56"/>
		<circle class="st34" cx="951.75" cy="645.18" r="2.56"/>
		<circle class="st34" cx="936.8" cy="618.28" r="2.56"/>
	</g>
</g>
<g>
	<defs>
		<path id="SVGID_29_" d="M1173.61,682.46c-0.82,5.77-1.7,11.85-2.64,18.25c-0.94,6.4-1.79,12.27-2.55,17.61
			c-0.88,6.19-1.59,11.32-2.13,15.38c-0.54,4.06-1.64,11.97-3.31,23.71c-1.26,0.18-6.05-0.1-14.37-0.84
			c-8.32-0.74-14.79-1.44-19.42-2.1c-14.95-2.12-28.53-5.55-40.75-10.3c-12.22-4.75-24.06-11.96-35.54-21.65
			c-8.15-7.04-14.27-15.35-18.36-24.93c-4.09-9.58-5.33-20.04-3.72-31.35c1.52-10.75,5.33-20.05,11.42-27.9
			c6.09-7.85,14.51-14.39,25.27-19.62c10.92-5.35,23.92-8.88,38.97-10.59c15.06-1.71,32.26-1.2,51.63,1.55
			c1.85,0.26,3.45,0.51,4.8,0.74c1.35,0.23,2.8,0.45,4.37,0.67l0.51,49.41c-1.28-0.18-2.76-0.39-4.43-0.63
			c-1.67-0.24-3.61-0.51-5.82-0.83c-2.71-0.38-7.63-0.9-14.76-1.55c-7.13-0.65-13.98-0.64-20.54,0.03
			c-9.05,0.82-16.43,3.17-22.13,7.05c-5.71,3.87-8.99,8.87-9.86,15c-0.72,5.05-0.17,9.62,1.65,13.69c1.82,4.07,4.25,7.41,7.29,10.02
			c1.22,1.12,3.09,2.44,5.59,3.95c2.51,1.52,5.14,2.76,7.91,3.74c0.22-1.56,0.76-5.37,1.62-11.42c0.86-6.05,1.97-14.39,3.33-25.02
			L1173.61,682.46z"/>
	</defs>
	<clipPath id="SVGID_30_">
		<use xlink:href="#SVGID_29_"  style="overflow:visible;"/>
	</clipPath>
	<g class="st36">
		<circle class="st34" cx="1061.76" cy="715.79" r="22.4"/>
		<circle class="st34" cx="1066.2" cy="646.58" r="14.08"/>
		<circle class="st34" cx="1107.27" cy="609.91" r="7.68"/>
		<circle class="st34" cx="1098.21" cy="728.26" r="9.75"/>
		<circle class="st34" cx="1111.39" cy="764.03" r="5.32"/>
		<circle class="st34" cx="1165.32" cy="701.72" r="7.68"/>
		<circle class="st34" cx="1157.63" cy="625.19" r="3.84"/>
		<circle class="st34" cx="1135.68" cy="722.6" r="3.84"/>
		<circle class="st34" cx="1094.77" cy="752.75" r="3.84"/>
		<circle class="st34" cx="1050.26" cy="682.36" r="3.84"/>
		<circle class="st34" cx="1065.46" cy="614.92" r="3.84"/>
		<circle class="st34" cx="1125.4" cy="628.43" r="3.84"/>
		<circle class="st34" cx="1151.35" cy="635.58" r="2.56"/>
		<circle class="st34" cx="1101.39" cy="624.33" r="2.56"/>
		<circle class="st34" cx="1073.82" cy="746.72" r="2.56"/>
		<circle class="st34" cx="1116.84" cy="753.79" r="2.56"/>
		<circle class="st34" cx="1125.28" cy="716.32" r="2.56"/>
		<circle class="st34" cx="1092.81" cy="709.01" r="2.56"/>
		<circle class="st34" cx="1071.53" cy="675.34" r="2.56"/>
		<circle class="st34" cx="1087.85" cy="602.91" r="2.56"/>
		<circle class="st34" cx="1150.73" cy="702.37" r="2.56"/>
		<circle class="st34" cx="1176.75" cy="685.92" r="2.56"/>
	</g>
</g>
<linearGradient id="SVGID_31_" gradientUnits="userSpaceOnUse" x1="892.7832" y1="494.1861" x2="1040.7356" y2="526.842">
	<stop  offset="0" style="stop-color:#00FF00"/>
	<stop  offset="0.0528" style="stop-color:#0DFF00"/>
	<stop  offset="0.1506" style="stop-color:#30FF00"/>
	<stop  offset="0.2829" style="stop-color:#68FF00"/>
	<stop  offset="0.4427" style="stop-color:#B4FF00"/>
	<stop  offset="0.5191" style="stop-color:#DBFF00"/>
	<stop  offset="0.568" style="stop-color:#CEF900"/>
	<stop  offset="0.6586" style="stop-color:#ABE900"/>
	<stop  offset="0.7811" style="stop-color:#73CF00"/>
	<stop  offset="0.9292" style="stop-color:#27AB00"/>
	<stop  offset="1" style="stop-color:#009900"/>
</linearGradient>
<path class="st37" d="M1030.72,440.36c2.78,9.58,4.28,19.71,4.28,30.19c0,60.02-48.65,108.67-108.67,108.67
	c-13.61,0-26.63-2.53-38.63-7.11c15.15,9,32.83,14.18,51.73,14.18c56.08,0,101.53-45.46,101.53-101.53
	C1040.96,468.83,1037.26,453.77,1030.72,440.36z"/>
<polygon class="st38" points="1015.13,405.82 1006.51,380.41 980.29,386.1 1005.7,377.48 1000.01,351.26 1008.63,376.67 
	1034.85,370.98 1009.44,379.6 "/>
<radialGradient id="SVGID_32_" cx="1091.1865" cy="364.8965" r="9" gradientTransform="matrix(0.9481 0.3179 -0.3179 0.9481 89.0122 -314.3405)" gradientUnits="userSpaceOnUse">
	<stop  offset="0" style="stop-color:#FFFFFF"/>
	<stop  offset="0.8856" style="stop-color:#FFFFFF;stop-opacity:0.1144"/>
	<stop  offset="1" style="stop-color:#FFFFFF;stop-opacity:0"/>
</radialGradient>
<circle class="st39" cx="1007.57" cy="378.54" r="9"/>
</svg>
